<?xml version="1.0" encoding="utf-8" ?>
<svg xmlns="http://www.w3.org/2000/svg" xmlns:xlink="http://www.w3.org/1999/xlink" width="512" height="512">
	<path fill="#047BEF" transform="scale(0.5 0.5)" d="M852.137 118.918C848.151 112.764 846.578 106.961 847.042 99.6669C847.373 94.446 849.719 89.1268 853.739 85.6893C858.292 81.7954 864.566 79.4357 870.572 80.0604C876.917 80.7203 881.302 84.7263 885.052 89.5015C886.609 94.5287 883.429 102.975 881.135 107.591L880.766 108.343C878.187 113.526 874.234 119.09 868.531 121.05C863.692 122.712 857.97 121.899 853.423 119.64L852.137 118.918Z"/>
	<path fill="#047BEF" transform="scale(0.5 0.5)" d="M142.033 934.285C142.083 932.74 141.597 931.021 141.535 929.422C141.331 924.127 141.824 918.993 143.773 914.015C145.475 909.669 149.024 905.691 153.286 903.78C159.847 900.839 164.724 902.967 170.973 905.294C174.531 908.071 178.37 911.575 178.927 916.335C179.3 919.523 179.051 923.003 178.18 926.078L177.966 926.849C176.014 933.672 172.219 939.317 165.964 942.793C161.878 945.064 158.003 945.275 153.582 943.854C148.882 942.343 144.503 938.539 142.033 934.285Z"/>
	<path transform="scale(0.5 0.5)" d="M231.671 757.273C236.116 755.364 239.72 753.461 244.49 755.333C249.292 757.218 253.438 760.717 255.512 765.5C257.155 769.288 257.354 773.279 255.69 777.095C254.395 780.066 252.089 782.773 250.045 785.262C243.114 791.615 236.337 798.116 229.529 804.598C226.438 807.542 223.228 811.29 219.731 813.675C217.192 815.405 214.255 816.105 211.304 816.778C205.785 815.898 202.087 814.702 197.55 811.234C194.817 807.384 192.373 802.144 193.015 797.25C193.349 794.708 194.465 792.473 195.934 790.409C198.915 786.221 203.347 782.517 207.039 778.964C214.916 771.383 222.824 763.717 231.671 757.273Z"/>
	<path transform="scale(0.5 0.5)" d="M816.209 206.931C821.455 208.282 824.345 210.312 828.723 213.275C831.236 217.199 832.977 221.656 831.751 226.401C829.021 236.954 803.069 259.142 793.778 266.227C791.336 267.694 788.667 268.714 785.884 269.321C782.538 270.051 778.833 269.705 775.969 267.737C771.959 264.983 769.016 259.897 768.184 255.145C767.164 249.312 769.606 244.671 772.79 240.017C778.692 234.068 784.684 228.2 790.725 222.392C795.949 217.37 801.805 211.544 808.434 208.485C810.947 207.326 813.475 207.022 816.209 206.931Z"/>
	<path fill="#047BEF" transform="scale(0.5 0.5)" d="M125.556 833.582L125.827 834.455C126.678 836.9 129.9 838.864 131.523 840.907C138.164 849.261 139.181 861.19 135.027 870.755C132.925 875.596 129.616 879.598 126.25 883.593C119.029 892.164 110.774 899.463 102.5 906.975C100.255 909.013 97.4005 912.539 94.7021 913.807C94.2226 914.032 93.9548 914.035 93.4241 914.122L92.1165 913.699C88.3152 912.158 84.7607 908.648 83.2332 904.853C79.295 895.067 82.099 884.071 86.2293 874.847C91.0748 864.027 97.9354 855.027 106.42 846.802C112.342 841.061 117.765 836.548 125.556 833.582Z"/>
	<path fill="#047BEF" transform="scale(0.5 0.5)" d="M931.502 106.613C936.497 108.911 940.022 112.611 942.037 117.75L942.299 118.398C943.363 121.173 943.276 124.193 943.056 127.114C942.429 135.446 939.738 143.913 936.25 151.473C928.439 168.4 915.443 180.278 899.547 189.431L894.753 184.014C889.977 178.121 886.84 169.066 887.818 161.432L887.948 160.5L888.179 158.766C890.325 145.62 903.289 134.094 911.861 124.752C915.791 120.468 919.588 115.75 923.982 111.936C926.304 109.922 929.023 108.424 931.502 106.613Z"/>
	<path transform="scale(0.5 0.5)" d="M912.262 78.2492C912.55 75.0665 912.807 71.9824 914.655 69.2476C916.714 66.2018 919.632 63.5783 922.222 60.9875C927.22 55.9889 932.411 51.2142 937.493 46.3059C946.378 37.7263 955.169 28.1658 964.741 20.3763C968.131 17.6182 972.357 15.9839 976.762 16.502C981.736 17.087 985.874 19.9074 988.933 23.75C991.743 27.2802 992.575 32.9517 991.777 37.3068C991.235 40.2602 989.833 42.6996 987.954 45.0077C983.494 50.4865 977.408 55.3909 972.345 60.3581C965.784 66.7945 959.304 73.3131 952.75 79.7559C948.207 84.2216 943.669 89.0789 938.241 92.4725C935.636 94.1012 932.992 95.131 929.904 95.3176C927.945 94.3502 925.715 93.9501 923.7 92.9727C917.126 89.7837 914.582 84.8662 912.262 78.2492Z"/>
	<path transform="scale(0.5 0.5)" d="M95.4503 927.925C101.682 930.028 108.501 933.175 111.527 939.5C112.141 940.782 112.708 944.136 113.55 945.013C113.304 949.557 111.184 952.852 108.477 956.341C104.637 961.288 99.6755 965.753 95.1302 970.058C87.933 976.874 80.6049 983.568 73.4645 990.441C68.8834 994.851 64.6176 1000.61 59.484 1004.23C56.8124 1006.12 53.4575 1007.27 50.2112 1007.6C46.1393 1008.01 41.8629 1006.63 38.7811 1003.96C34.8812 1000.58 32.1808 995.7 31.994 990.485C31.8239 985.736 33.1845 982.329 36.4383 978.883C43.5294 971.372 51.2671 964.38 58.6037 957.1C64.1989 951.548 69.7623 945.957 75.4408 940.49C79.1335 936.935 82.9343 933.059 87.2684 930.295C90.0319 928.533 92.1985 928.03 95.4503 927.925Z"/>
	<path transform="scale(0.5 0.5)" d="M495.199 140.464C496.795 135.734 499.252 132.578 503.775 130.284C510.082 127.086 517.286 127.937 524.159 127.973C539.651 128.055 554.713 129.655 570.041 131.797C591.164 134.75 612.463 139.093 632.7 145.922C649.812 151.697 666.296 157.821 682.392 166.097C686.197 168.054 690.509 169.921 693.8 172.664C695.388 173.988 696.608 175.899 697.515 177.74C699.625 182.02 699.953 187.629 698.332 192.128C697.494 194.457 695.844 196.491 694.06 198.164C691.033 199.643 688.331 201.655 684.838 201.865C681.931 202.039 678.467 200.66 675.795 199.592C668.999 196.875 662.551 193.265 655.939 190.133C651.16 187.87 646.294 185.867 641.346 184.007C628.837 179.306 616.289 175.136 603.355 171.756C585.456 167.079 567.304 164.084 548.914 162.099C541.496 161.298 533.957 160.957 526.5 160.718C520.632 160.531 512.459 161.431 507.031 159.157C504.879 158.255 503.087 156.957 501.411 155.358C496.626 150.794 495.362 146.855 495.199 140.464Z"/>
	<path fill="#299FF8" transform="scale(0.5 0.5)" d="M885.052 89.5015L912.262 78.2492C914.582 84.8662 917.126 89.7837 923.7 92.9727C925.715 93.9501 927.945 94.3502 929.904 95.3176C928.972 99.0803 929.287 102.266 930.642 105.894L931.502 106.613C929.023 108.424 926.304 109.922 923.982 111.936C919.588 115.75 915.791 120.468 911.861 124.752C903.289 134.094 890.325 145.62 888.179 158.766L887.948 160.5L887.818 161.432C886.84 169.066 889.977 178.121 894.753 184.014L899.547 189.431C884.573 198.563 867.649 205.086 850.5 208.776C843.324 210.32 835.714 211.063 828.723 213.275C824.345 210.312 821.455 208.282 816.209 206.931C819.035 197.058 821.705 187.272 823.678 177.185C825.285 168.967 826.345 160.708 828.837 152.684C833.112 138.927 841.704 128.511 852.137 118.918L853.423 119.64C857.97 121.899 863.692 122.712 868.531 121.05C874.234 119.09 878.187 113.526 880.766 108.343L881.135 107.591C883.429 102.975 886.609 94.5287 885.052 89.5015Z"/>
	<path fill="#299FF8" transform="scale(0.5 0.5)" d="M197.55 811.234C202.087 814.702 205.785 815.898 211.304 816.778C208.352 822.789 205.632 828.815 203.86 835.297C199.871 849.883 199.133 866.126 192.809 879.925C190.002 886.049 186.011 891.268 181.563 896.293C178.557 899.689 175.265 903.559 170.973 905.294C164.724 902.967 159.847 900.839 153.286 903.78C149.024 905.691 145.475 909.669 143.773 914.015C141.824 918.993 141.331 924.127 141.535 929.422C141.597 931.021 142.083 932.74 142.033 934.285C137.744 937.142 118.579 946.466 114.29 945.266L113.55 945.013C112.708 944.136 112.141 940.782 111.527 939.5C108.501 933.175 101.682 930.028 95.4503 927.925C95.169 924.404 95.9521 920.621 95.3631 917.142C95.0438 915.257 94.9987 915.283 93.4241 914.122C93.9548 914.035 94.2226 914.032 94.7021 913.807C97.4005 912.539 100.255 909.013 102.5 906.975C110.774 899.463 119.029 892.164 126.25 883.593C129.616 879.598 132.925 875.596 135.027 870.755C139.181 861.19 138.164 849.261 131.523 840.907C129.9 838.864 126.678 836.9 125.827 834.455L125.556 833.582C132.442 830.406 138.905 826.584 145.961 823.71C162.683 816.9 179.963 814.476 197.55 811.234Z"/>
	<path transform="scale(0.5 0.5)" d="M96.2081 96.0782L96.7862 96.0488C104.521 95.7539 112.371 96.01 120.117 96.0071C135.347 96.0015 150.577 95.9999 165.806 96.0004C174.574 96.0006 183.343 95.9914 192.111 96.0031C197.728 96.0106 203.607 95.6784 209.159 96.5813C212.41 97.1097 215.762 99.1435 218.109 101.406C221.186 104.372 222.629 107.244 222.538 111.548C222.443 116.069 220.598 119.782 217.924 123.333C212.793 130.15 205.335 135.318 199.204 141.215C186.303 153.621 173.726 166.372 160.707 178.653C154.94 184.417 148.891 189.933 142.909 195.473C131.906 205.664 119.18 217.66 104.653 222.43C99.9051 223.99 95.1082 224.628 90.5166 222.088C85.2856 219.195 81.8698 213.481 80.5164 207.81C79.1496 202.082 79.9798 194.645 79.9732 188.736C79.9596 176.64 79.9829 164.545 80.0036 152.449C80.0182 143.856 79.9941 135.264 79.9973 126.671C79.9991 121.896 79.7283 116.901 80.1509 112.147C80.4013 109.33 81.2157 106.738 82.7323 104.335C85.8577 99.3839 90.6795 97.2795 96.2081 96.0782Z"/>
	<path fill="#424343" transform="scale(0.5 0.5)" d="M113.377 128.25L164.109 128.592L139.703 152.077L113.197 177.126C112.94 171.207 111.836 131.213 113.377 128.25Z"/>
	<path transform="scale(0.5 0.5)" d="M924.746 800.127L926.456 800.01C931.116 799.927 935.361 801.537 938.661 804.808C941.68 807.798 942.95 811.204 943.67 815.365C944.23 818.6 944.012 822.166 944.029 825.455C944.06 831.343 944.052 837.231 944.049 843.119C944.037 862.83 944.061 882.539 944.083 902.25C944.092 910.159 945.203 916.93 938.923 922.923C936.539 925.199 933.149 927.052 929.9 927.655C926.174 928.347 922.003 927.994 918.204 928.001C911.195 928.013 904.186 928.018 897.177 928.021C872.008 928.031 846.817 928.21 821.65 927.847C817.466 927.543 812.701 927.298 809.02 925.085C805.558 923.003 803.06 919.132 802.073 915.25C800.985 910.971 801.663 906.293 804.082 902.612L804.493 902L805.265 900.848C808.554 896.328 813.673 892.556 817.75 888.773C824.24 882.751 830.541 876.5 836.993 870.43C851.747 856.551 865.902 842.209 880.974 828.634C889.995 820.509 899.361 812.216 909.621 805.67C914.262 802.71 919.331 800.99 924.746 800.127Z"/>
	<path fill="#424343" transform="scale(0.5 0.5)" d="M910.05 846.75L910.851 846.844L912.382 895.998L862.121 895.691L859.75 895.353C860.345 893.783 862.709 891.926 863.96 890.75C868.214 886.75 872.557 882.844 876.787 878.817C887.934 868.206 898.953 857.419 910.05 846.75Z"/>
	<path transform="scale(0.5 0.5)" d="M304.832 829.309L305.201 827.556C305.484 826.193 305.74 824.812 306.233 823.506C307.805 819.338 311.691 815.767 315.75 814.062C318.515 812.9 322.28 812.487 325.203 813.344C332.462 815.47 339.733 820.901 346.414 824.505C353.266 828.201 360.384 831.418 367.559 834.429C455.382 871.279 556.076 874.024 644.925 838.866C659.687 833.024 673.472 826.142 687.269 818.32C693.995 814.506 700.921 809.003 708.093 806.299C711.983 804.832 716.574 805.735 720.21 807.524C724.497 809.633 727.559 812.669 729.003 817.261C729.436 818.637 729.899 819.901 730.499 821.213L730.714 821.675L730.65 822.194C730.603 822.927 730.698 823.365 730.825 824.064C731.176 825.995 730.857 828.046 729.657 829.645C724.686 836.268 715.492 840.389 708.489 844.544C694.413 852.894 679.595 859.771 664.5 866.065C652.009 871.272 639.315 876.378 626.338 880.249C603.315 887.117 578.936 891.661 555.036 894.052C499.226 899.637 441.829 894.14 388.33 877.202C375.188 873.041 362.499 867.845 349.839 862.422C340.879 858.584 332.321 854.135 323.721 849.562C319.255 847.187 313.942 844.715 310.092 841.425C306.05 837.97 305.602 834.303 304.832 829.309Z"/>
	<path transform="scale(0.5 0.5)" d="M824.929 312.806C829.851 310.998 834.715 310.466 839.583 312.681C842.672 314.086 845.174 317.206 846.989 320C853.796 330.478 858.916 341.653 864.051 353C893.703 418.529 901.503 493.618 892.499 564.5C891.042 575.976 889.604 587.293 887.266 598.636C884.726 610.959 881.139 622.939 877.342 634.921C870.4 656.827 862.054 678.245 851.42 698.647C845.512 709.981 838.713 720.818 831.926 731.638C823.211 745.532 813.937 759.552 802.216 771.115C808.078 777.783 813.687 784.779 819.253 791.699C822.995 796.35 827.46 801.235 829.981 806.674C831.512 809.977 832.215 813.031 831.923 816.662C831.701 819.419 830.711 821.898 829.19 824.189L828.891 824.657C826.671 828.034 822.971 830.655 819 831.495C814.81 832.383 810.372 831.302 806.855 828.93C803.688 826.794 801.277 823.823 798.81 820.945C794.359 815.751 790.231 810.281 785.87 805.011C781.31 799.502 775.717 793.999 771.904 787.959L768.067 780.557C765.824 775.271 765.575 769.097 767.964 763.824C771.055 757.003 777.102 751.223 781.75 745.419C785.87 740.273 789.775 734.918 793.643 729.58C810.201 706.732 824.415 681.363 835.271 655.318C869.115 574.124 873.49 478.03 845.204 394.584C841.113 382.513 836.41 370.643 830.772 359.205C826.957 351.464 822.207 343.805 819.021 335.812C816.441 329.337 817.179 324.188 819.882 317.971C821.316 315.905 822.896 314.283 824.929 312.806Z"/>
	<path transform="scale(0.5 0.5)" d="M199.824 712.407C197.281 713.646 194.669 714.556 191.799 714.524C187.498 714.475 184.016 713.074 181.127 709.839C177.115 705.347 174.191 699.233 171.405 693.92C165.478 682.618 160.068 671.128 155.275 659.296C140.216 622.123 131.116 580.4 128.484 540.379C127.873 531.076 127.976 521.723 127.965 512.404C127.955 504.24 127.771 496 128.165 487.848C129.002 470.542 131.376 452.776 134.506 435.75C136.785 423.352 140.261 411.299 143.675 399.181C149.293 379.235 156.229 358.922 165.259 340.233C176.241 317.503 189.308 295.725 204.11 275.287C207.928 270.015 211.906 264.829 216.063 259.817C217.05 258.628 221.618 254.059 221.846 252.901C222.206 251.075 196.437 222.981 193.529 217.25C192.096 214.426 191.399 211.408 191.604 208.244C191.901 203.662 194.009 199.97 197.55 197.079C201.372 193.959 206.268 192.619 211.156 193.27C214.247 193.682 216.899 194.713 219.313 196.712C224.788 201.247 229.352 207.992 234.033 213.39C240.273 220.583 246.852 227.29 252.64 234.882C256.67 241.627 261.297 248.685 259.108 256.934C257.17 264.236 249.596 271.117 244.814 276.836C239.468 283.23 234.041 289.672 229.166 296.434C182.325 361.4 157.732 442.738 160.061 522.73C161.332 566.39 170.959 612.615 188.094 652.785C191.25 660.184 194.834 667.366 198.531 674.505C201.888 680.986 207.011 688.598 208.098 695.917C208.992 701.943 203.985 708.475 199.824 712.407Z"/>
	<path fill="#FEC403" transform="scale(0.5 0.5)" d="M297.711 200.56C297.855 197.619 298.157 195.117 299.681 192.537C304.258 184.79 316.915 179.195 324.61 175.09C341.411 166.127 358.274 157.8 376.095 151C389.283 145.967 403.363 141.073 417.145 137.972C423.385 136.568 429.165 136.712 434.25 141.204C435.514 142.32 436.453 144.009 437.91 144.858L438.461 145.162L495.199 140.464C495.362 146.855 496.626 150.794 501.411 155.358C503.087 156.957 504.879 158.255 507.031 159.157C512.459 161.431 520.632 160.531 526.5 160.718C533.957 160.957 541.496 161.298 548.914 162.099C567.304 164.084 585.456 167.079 603.355 171.756C616.289 175.136 628.837 179.306 641.346 184.007C646.294 185.867 651.16 187.87 655.939 190.133C662.551 193.265 668.999 196.875 675.795 199.592C678.467 200.66 681.931 202.039 684.838 201.865C688.331 201.655 691.033 199.643 694.06 198.164C699.357 202.592 709.981 210.541 717.263 209.627C720.409 209.232 730.254 204.307 732.203 204.77C732.217 204.773 733.41 205.621 733.566 205.732C741.663 211.507 749.175 218.378 756.592 225.001C762.035 229.861 767.809 234.69 772.79 240.017C769.606 244.671 767.164 249.312 768.184 255.145C769.016 259.897 771.959 264.983 775.969 267.737C778.833 269.705 782.538 270.051 785.884 269.321C788.667 268.714 791.336 267.694 793.778 266.227C798.519 270.841 802.13 276.97 805.928 282.371C811.247 289.935 816.737 297.435 821.788 305.177C823.357 307.817 824.366 309.723 824.929 312.806C822.896 314.283 821.316 315.905 819.882 317.971C817.179 324.188 816.441 329.337 819.021 335.812C822.207 343.805 826.957 351.464 830.772 359.205C836.41 370.643 841.113 382.513 845.204 394.584C873.49 478.03 869.115 574.124 835.271 655.318C824.415 681.363 810.201 706.732 793.643 729.58C789.775 734.918 785.87 740.273 781.75 745.419C777.102 751.223 771.055 757.003 767.964 763.824C765.575 769.097 765.824 775.271 768.067 780.557L771.904 787.959L730.714 821.675L730.499 821.213C729.899 819.901 729.436 818.637 729.003 817.261C727.559 812.669 724.497 809.633 720.21 807.524C716.574 805.735 711.983 804.832 708.093 806.299C700.921 809.003 693.995 814.506 687.269 818.32C673.472 826.142 659.687 833.024 644.925 838.866C556.076 874.024 455.382 871.279 367.559 834.429C360.384 831.418 353.266 828.201 346.414 824.505C339.733 820.901 332.462 815.47 325.203 813.344C322.28 812.487 318.515 812.9 315.75 814.062C311.691 815.767 307.805 819.338 306.233 823.506C305.74 824.812 305.484 826.193 305.201 827.556L304.832 829.309C301.401 828.963 298.234 825.888 295.458 823.956C278.941 812.462 264.55 799.132 250.045 785.262C252.089 782.773 254.395 780.066 255.69 777.095C257.354 773.279 257.155 769.288 255.512 765.5C253.438 760.717 249.292 757.218 244.49 755.333C239.72 753.461 236.116 755.364 231.671 757.273L199.824 712.407C203.985 708.475 208.992 701.943 208.098 695.917C207.011 688.598 201.888 680.986 198.531 674.505C194.834 667.366 191.25 660.184 188.094 652.785C170.959 612.615 161.332 566.39 160.061 522.73C157.732 442.738 182.325 361.4 229.166 296.434C234.041 289.672 239.468 283.23 244.814 276.836C249.596 271.117 257.17 264.236 259.108 256.934C261.297 248.685 256.67 241.627 252.64 234.882C257.045 232.153 261.007 228.307 265 225.007C272.055 219.177 279.21 213.367 286.539 207.882C290.036 205.266 293.658 202.256 297.711 200.56Z"/>
	<path fill="#EFA802" transform="scale(0.5 0.5)" d="M821.788 305.177C823.357 307.817 824.366 309.723 824.929 312.806C822.896 314.283 821.316 315.905 819.882 317.971C819.195 316.206 819.084 314.568 818.984 312.687C818.781 308.879 819.318 307.948 821.788 305.177Z"/>
	<path transform="scale(0.5 0.5)" d="M297.711 200.56C297.855 197.619 298.157 195.117 299.681 192.537C304.258 184.79 316.915 179.195 324.61 175.09C341.411 166.127 358.274 157.8 376.095 151C389.283 145.967 403.363 141.073 417.145 137.972C423.385 136.568 429.165 136.712 434.25 141.204C435.514 142.32 436.453 144.009 437.91 144.858L438.461 145.162C440.789 148.69 441.704 152.687 440.788 156.864C439.802 161.359 436.294 165.115 432.481 167.474C428.134 170.164 422.428 171.272 417.549 172.638C410.59 174.587 403.614 176.531 396.745 178.782C377.718 185.018 358.435 193.342 341.122 203.421C333.201 208.032 321.095 217.835 311.623 215.794C307.152 214.83 302.618 211.234 300.242 207.37C299.03 205.398 298.35 202.773 297.711 200.56Z"/>
	<path transform="scale(0.5 0.5)" d="M504.665 303.72C556.936 301.09 611.031 320.67 649.965 355.567C691.174 392.503 715.475 446.458 718.42 501.535C721.326 555.887 701.408 612.105 665.013 652.501C627.698 693.919 576.22 717.398 520.732 720.403C467.94 721.399 413.487 704.303 374.353 668.003C362.018 656.56 350.367 643.74 340.986 629.75C318.445 596.131 306.409 555.22 305.097 514.877C304.72 503.295 305.914 491.994 307.671 480.559C314.063 438.97 332.725 398.08 361.633 367.245C397.99 328.465 451.787 305.434 504.665 303.72Z"/>
	<path fill="white" transform="scale(0.5 0.5)" d="M535.46 670.691L535.41 671.722L534.336 672.5C536.868 676.261 540.896 681.849 544.616 684.417L530.098 687.852L528.303 672.838L529 671.671C531.372 671.677 533.217 671.575 535.46 670.691Z"/>
	<path fill="#C3D1E5" transform="scale(0.5 0.5)" d="M551.187 347.608L550.784 347.462C545.124 345.371 540.341 342.413 535.066 339.627C554.297 340.102 574.994 346.555 591.977 355.554C599.118 359.338 605.709 363.861 612.394 368.368C617.646 371.909 623.414 375.235 627.929 379.693C624.15 382.554 620.089 384.389 615.612 385.891C615.081 384.628 614.531 383.731 613.266 383.1C612.438 382.687 611.793 382.21 611 381.755C610.124 381.253 609.507 381.034 608.702 380.363C607.837 379.643 608.195 379.845 607.25 379.255C605.993 378.471 604.943 377.54 603.719 376.724L603 376.255C599.351 373.68 595.098 371.885 591.5 369.255C589.819 368.026 587.982 366.956 586.25 365.755C583.986 364.185 581.676 362.134 579.233 360.875C577.803 360.138 576.384 359.118 575 358.267L572.5 356.764C567.424 353.627 561.398 350.666 555.747 348.777C554.297 348.293 552.716 347.55 551.187 347.608Z"/>
	<path fill="#B1D3ED" transform="scale(0.5 0.5)" d="M528.303 672.838C528.123 672.628 528.267 672.286 528.263 672.009C528.258 671.696 528.251 671.384 528.25 671.07L527.693 624.621C530.85 623.988 535.091 624.705 538.341 624.858C556.296 625.702 574.084 626.953 591.671 630.87C579.749 641.619 568.312 653.546 554.53 661.925C550.935 664.111 546.99 666.035 543.09 667.623C540.779 668.564 537.455 669.316 535.46 670.691C533.217 671.575 531.372 671.677 529 671.671L528.303 672.838Z"/>
	<path fill="#C3D1E5" transform="scale(0.5 0.5)" d="M591.671 630.87C603.708 634.529 615.127 638.679 626.278 644.561C604.421 663.923 576.297 678.895 547.433 683.61L544.616 684.417C540.896 681.849 536.868 676.261 534.336 672.5L535.41 671.722L535.46 670.691C537.455 669.316 540.779 668.564 543.09 667.623C546.99 666.035 550.935 664.111 554.53 661.925C568.312 653.546 579.749 641.619 591.671 630.87Z"/>
	<path fill="#075FA9" transform="scale(0.5 0.5)" d="M535.41 671.722L538.874 672.123L547.433 683.61L544.616 684.417C540.896 681.849 536.868 676.261 534.336 672.5L535.41 671.722Z"/>
	<path fill="#B1D3ED" transform="scale(0.5 0.5)" d="M615.612 385.891C613.223 386.299 610.65 387.646 608.307 388.433C603.888 389.918 599.431 391.176 594.879 392.191C572.926 397.086 550.341 399.431 527.866 399.694C527.111 398.378 527.603 345.005 528.239 341.944L551.187 347.608C552.716 347.55 554.297 348.293 555.747 348.777C561.398 350.666 567.424 353.627 572.5 356.764L575 358.267C576.384 359.118 577.803 360.138 579.233 360.875C581.676 362.134 583.986 364.185 586.25 365.755C587.982 366.956 589.819 368.026 591.5 369.255C595.098 371.885 599.351 373.68 603 376.255L603.719 376.724C604.943 377.54 605.993 378.471 607.25 379.255C608.195 379.845 607.837 379.643 608.702 380.363C609.507 381.034 610.124 381.253 611 381.755C611.793 382.21 612.438 382.687 613.266 383.1C614.531 383.731 615.081 384.628 615.612 385.891Z"/>
	<path fill="#C3D1E5" transform="scale(0.5 0.5)" d="M649.379 405.25L650.696 405.096C662.213 421.208 672.834 441.173 678.376 460.228C681.78 471.934 683.507 483.9 684.638 496.007L652.75 495.985L640.71 495.993C640.099 483.274 637.49 470.027 634.142 457.766C632.384 451.328 630.535 444.761 627.816 438.658C624.819 431.935 620.97 425.711 617.05 419.503C628.621 416.28 639.157 411.528 649.379 405.25Z"/>
	<path fill="#C3D1E5" transform="scale(0.5 0.5)" d="M343.025 528.276L382.778 528.761C385.131 555.323 392.986 582.111 407.688 604.478C402.292 605.754 397.608 607.698 392.565 610.015C386.509 612.881 380.775 616.036 375.509 620.193C362.547 603.535 352.645 585.517 346.46 565.246C343.574 555.789 341.811 545.958 340.221 536.211C339.923 534.385 338.723 529.97 339.5 528.51L343.025 528.276Z"/>
	<path fill="#C3D1E5" transform="scale(0.5 0.5)" d="M373.902 404.25C376.068 404.394 381.008 408.573 383.203 409.77C388.179 412.485 393.447 414.84 398.697 416.965C401.068 417.925 404.255 418.494 406.324 419.934C401.261 428.71 396.675 437.57 393.25 447.135C387.667 462.73 384.577 479.854 380.684 495.971L371.25 495.973L338.992 496.033C340.494 484.505 342.031 473.279 345.017 462C350.302 442.037 360.774 420.253 373.902 404.25Z"/>
	<path fill="#C3D1E5" transform="scale(0.5 0.5)" d="M640.867 528.25C644.329 527.398 649.21 528.015 652.887 528.012C663.388 528.003 673.929 527.825 684.419 528.339C682.199 558.506 671.257 588.98 653.833 613.733L648.921 620.314C641.373 612.749 627.118 607.213 616.884 604.7C626.67 586.433 634.364 566.981 638.426 546.601C639.632 540.551 639.545 534.194 640.867 528.25Z"/>
	<path fill="#C3D1E5" transform="scale(0.5 0.5)" d="M494.834 624.75L495.529 624.934C496.639 626.83 495.834 633.02 495.802 635.389C495.67 645.086 495.777 654.808 495.461 664.5C495.192 672.752 493.741 680.053 494.861 688.363C486.006 686.109 476.998 684.531 468.15 682.21C452.405 678.078 437.703 671.961 423.487 664.076C413.892 658.423 405.209 652.059 396.93 644.612C410.935 636.004 425.521 632.221 441.555 629.447C459.234 626.388 476.932 625.297 494.834 624.75Z"/>
	<path fill="#C3D1E5" transform="scale(0.5 0.5)" d="M492.889 337.75C493.745 337.461 493.928 337.406 494.863 337.543L495.651 400.421C485.125 399.779 474.645 398.58 464.156 397.515C446.279 395.7 428.607 394.149 411.737 387.512C406.274 385.348 401.516 382.268 396.817 378.795C410.126 366.705 424.636 358.177 441.096 351.024C448.567 347.777 456.25 344.702 464.146 342.648C473.689 340.165 483.139 338.946 492.889 337.75Z"/>
	<path fill="#299FF8" transform="scale(0.5 0.5)" d="M528.136 528.25C530.424 527.668 533.371 528.018 535.733 528.018C540.441 528.016 545.149 528.013 549.857 528.012C569.03 528.006 588.488 527.351 607.626 528.292C605.085 546.78 600.887 563.936 592.547 580.75L584.151 596.006C565.822 592.331 546.547 592.555 527.985 590.995L528.136 528.25Z"/>
	<path fill="#C3D1E5" transform="scale(0.5 0.5)" d="M415.646 528.25C417.538 527.72 420.008 527.996 421.984 527.995C425.963 527.992 429.942 527.988 433.921 527.986C454.559 527.975 475.221 527.752 495.847 528.539C495.86 536.084 496.807 588.144 495 591.117L492.1 591.415L441.143 596.046C427.949 580.788 422.053 560.79 417.908 541.422C417.029 537.315 415.47 532.404 415.646 528.25Z"/>
	<path fill="#C3D1E5" transform="scale(0.5 0.5)" d="M439.648 428.25C441.123 427.696 442.902 428.097 444.442 428.263C448.165 428.663 451.885 429.096 455.608 429.502C468.994 430.962 482.013 431.931 495.481 432.204L495.837 496.004L472.12 495.949L415.491 495.92C416.991 471.292 426.734 448.909 439.648 428.25Z"/>
	<path fill="#299FF8" transform="scale(0.5 0.5)" d="M582.321 428.215C583.417 428.104 584.549 427.685 585.433 428.535C587.381 430.41 589.092 434.589 590.413 437.066C600.469 455.924 605.389 474.973 607.959 496.032L554.75 495.936L527.991 495.52L528.021 432.023L582.321 428.215Z"/>
</svg>
