<?xml version="1.0" encoding="utf-8" ?>
<svg xmlns="http://www.w3.org/2000/svg" xmlns:xlink="http://www.w3.org/1999/xlink" width="512" height="512">
	<path fill="#2670BD" transform="scale(0.5 0.5)" d="M13.1354 255.77L13.0984 254.933C12.667 229.977 13.2424 204.875 13.1994 179.903C13.178 167.449 13.1341 154.995 13.131 142.541C13.1287 133.527 12.8824 124.202 14.0147 115.25C17.1394 90.5481 28.9316 66.7994 46.5258 49.25C63.0406 32.7774 83.8577 21.5997 107.004 18.0199C119.25 16.1259 131.557 16.5054 143.903 16.5118C158.151 16.5193 172.399 16.5366 186.647 16.5651C236.283 16.6642 285.918 16.8323 335.554 16.7677C488.437 16.5686 641.317 17.0473 794.198 16.9624C826.054 16.9447 857.907 16.4812 889.763 16.4479C896.008 16.4413 902.43 16.1893 908.645 16.7615C935.416 19.2262 959.425 29.6276 978.536 48.741C997.761 67.9695 1009.43 93.895 1011.29 121C1011.71 127.12 1011.44 133.361 1011.37 139.497C1011.25 150.357 1011.03 161.217 1011 172.078C1010.92 198.413 1010.99 224.75 1011 251.085L913.409 250.479L537.764 250.399L396.659 250.388C296.145 250.704 195.629 250.311 95.1152 250.54C73.3064 250.59 51.4725 250.283 29.6687 250.633C26.1121 250.69 22.5556 250.766 18.9999 250.862C17.2956 250.908 15.3255 250.734 13.6958 251.25L13.1354 255.77Z"/>
	<path fill="#FABB4A" transform="scale(0.5 0.5)" d="M175.337 119.127C184.093 118.252 192.596 120.359 199.862 125.375C207.986 130.982 213.562 140.216 215.25 149.902C216.912 159.438 214.511 168.395 208.989 176.253C202.923 184.885 193.713 190.072 183.458 191.855C178.846 192.33 174.071 191.906 169.58 190.784C160.723 188.572 152.214 182.022 147.605 174.144C143.052 166.363 140.734 156.225 143.191 147.374L143.447 146.5C144.56 142.628 146.21 139.02 148.549 135.732C155.238 126.329 164.056 121.083 175.337 119.127Z"/>
	<path fill="#FB807B" transform="scale(0.5 0.5)" d="M333.442 119.635L338.237 119.393C347.319 119.432 357.39 123.05 363.877 129.621C370.301 136.127 374.213 146.087 374.984 155.125C375.383 159.813 375.024 164.784 374.99 169.503C366.302 181.71 358.756 189.72 343.419 192.475C334.094 192.725 325.674 191.873 317.738 186.501C309.075 180.637 303.448 172.021 301.621 161.73C300.023 152.725 301.941 142.894 307.203 135.36C313.351 126.558 323.057 121.519 333.442 119.635Z"/>
	<path fill="#90CFFE" transform="scale(0.5 0.5)" d="M396.659 250.388C397.086 247.525 399.732 243.492 401.044 240.788C404.859 232.926 408.691 225.079 412.563 217.245C422.922 196.285 432.584 175.044 442.728 153.99C449.175 140.611 456.791 127.293 461.915 113.359L543.045 112.915L542.408 112.959L530.034 113.133C526.785 119.994 522.906 126.565 519.359 133.276C514.943 141.632 510.789 150.096 506.645 158.587C503.561 164.905 499.845 171.457 498.345 178.388C496.454 187.128 498.317 197.345 498.466 206.276C498.709 220.882 498.675 235.506 498.529 250.113C506.969 250.051 515.409 249.988 523.85 250.006C528.394 250.016 533.3 249.67 537.764 250.399L396.659 250.388Z"/>
	<path fill="#C8E7FB" transform="scale(0.5 0.5)" d="M543.045 112.915L912.999 112.86L913.409 250.479L537.764 250.399C533.3 249.67 528.394 250.016 523.85 250.006C515.409 249.988 506.969 250.051 498.529 250.113C498.675 235.506 498.709 220.882 498.466 206.276C498.317 197.345 496.454 187.128 498.345 178.388C499.845 171.457 503.561 164.905 506.645 158.587C510.789 150.096 514.943 141.632 519.359 133.276C522.906 126.565 526.785 119.994 530.034 113.133L542.408 112.959L543.045 112.915Z"/>
	<path fill="#153162" transform="scale(0.5 0.5)" d="M913.409 250.479L1011 251.085C1011.01 328.473 1011.45 405.864 1011.34 483.25C1011.23 558.258 1010.83 633.268 1011.07 708.278C1011.22 753.105 1010.85 797.937 1011.02 842.759C1011.07 856.245 1011.19 869.729 1011.3 883.213C1011.39 893.126 1011.99 903.516 1010.47 913.341C1006.79 937.264 996.297 957.571 979.2 974.678C960.819 993.069 936.785 1005.74 910.744 1008.19C901.712 1009.04 892.198 1008.52 883.109 1008.52C868.304 1008.53 853.499 1008.52 838.694 1008.5C719.238 1008.34 599.788 1008.34 480.329 1008.39C436.444 1008.41 392.544 1007.99 348.663 1008.22C294.949 1008.51 241.238 1008.31 187.523 1008.4C171.888 1008.43 156.252 1008.46 140.616 1008.49C130.132 1008.5 119.238 1009.18 108.871 1007.52C84.0484 1003.55 62.5323 992.422 44.8167 974.589C32.3089 961.998 21.9113 945.114 17.2095 927.906C13.2934 913.574 13.3197 900.052 13.2368 885.356C13.1711 873.701 13.124 862.045 13.1169 850.389C13.1011 824.537 12.9374 798.66 13.1256 772.81L13.1354 255.77L13.6958 251.25C15.3255 250.734 17.2956 250.908 18.9999 250.862C22.5556 250.766 26.1121 250.69 29.6687 250.633C51.4725 250.283 73.3064 250.59 95.1152 250.54C195.629 250.311 296.145 250.704 396.659 250.388L537.764 250.399L913.409 250.479Z"/>
	<path fill="white" transform="scale(0.5 0.5)" d="M111.309 347.25C114.25 346.397 118.981 347.054 122.153 347.089C129.665 347.171 137.173 347.152 144.685 347.117C194.003 346.887 243.335 347.205 292.654 347.236C499.438 347.367 706.22 347.084 913.004 346.963C913.364 373.366 913.032 399.798 913.03 426.206C913.027 480.363 912.98 534.527 913.047 588.685C913.13 654.506 912.934 720.329 912.999 786.151C913.039 826.331 913.587 866.566 913.224 906.738C913.203 909.012 913.74 914.296 912.25 915.832L110.956 915.984C110.346 871.532 110.999 827.01 111.034 782.551C111.097 701.416 111.004 620.28 111.003 539.146C111.002 495.461 110.821 451.774 110.882 408.09C110.9 394.906 110.943 381.721 110.993 368.536C111.02 361.54 110.598 354.205 111.309 347.25Z"/>
	<path fill="#153162" transform="scale(0.5 0.5)" d="M508.495 836.588C513.273 836.082 518.27 836.25 522.6 838.566C528.631 841.791 532.897 847.455 534.816 853.979C536.609 860.073 535.604 867.046 532.417 872.5C528.626 878.987 522.704 882.465 515.642 884.36C510.669 884.614 506.819 884.54 502.237 882.204C496.025 879.036 491.18 872.889 489.207 866.245C487.385 860.109 488.488 854.219 491.646 848.75C495.489 842.096 501.274 838.612 508.495 836.588Z"/>
	<path fill="#FABB4A" transform="scale(0.5 0.5)" d="M218.301 406.634C227.579 406.035 234.207 409.162 241.482 414.454C248.688 413.654 256.188 413.935 263.443 413.922C276.115 413.899 288.791 414.009 301.461 413.896C354.717 413.42 407.948 414.195 461.193 413.951C528.088 413.644 594.979 414.126 661.871 413.72C685.239 413.578 708.6 413.905 731.959 413.805C747.496 413.738 763.906 412.513 779.326 414.308C780.473 414.441 781.69 413.443 782.709 412.898C785.652 411.325 788.602 409.706 791.75 408.574C795.732 407.142 799.939 406.333 804.177 406.518C812.764 406.893 821.848 411.601 827.569 417.955C833.031 424.021 836.576 432.938 835.917 441.132C835.168 450.45 829.291 460.859 821.942 466.651C816.14 471.223 810.267 472.386 803.087 472.708C793.405 472.41 787.03 468.944 780.189 462.327C779.74 461.893 778.267 460.135 777.755 459.953C777.019 459.69 774.819 459.95 773.961 459.949C769.853 459.946 765.744 459.942 761.636 459.938C740.216 459.917 718.797 459.895 697.377 459.87C598.723 459.752 500.064 459.877 401.411 459.939C369.413 459.96 337.414 459.928 305.416 459.93C285.36 459.932 265.182 460.398 245.145 459.498C243.856 461.556 242.062 463.393 240.25 465.004C233.712 470.817 225.145 473.307 216.5 472.532C208.189 471.786 199.623 466.368 194.427 459.975C189.047 453.355 186.335 445.008 187.339 436.481C188.404 427.424 192.958 419.954 200.087 414.322C205.504 410.043 211.495 407.671 218.301 406.634Z"/>
	<path fill="#153162" transform="scale(0.5 0.5)" d="M293.045 523.109C300.618 522.465 308.589 523.094 316.213 523.081C333.286 523.051 350.355 523.03 367.427 523.133C410.371 523.392 453.322 523.081 496.269 523.232C552.186 523.428 608.113 523.096 664.034 523.222C677.052 523.252 690.064 523.242 703.081 523.066C711.394 522.954 719.86 522.509 728.162 522.903C732.849 523.125 737.49 524.591 741.586 526.857C749.732 531.362 755.737 538.897 757.977 547.941C758.819 551.339 758.511 555.254 758.486 558.733C758.437 565.655 758.203 572.573 758.107 579.494C757.928 592.392 757.991 605.299 757.993 618.198C757.999 656.084 758.09 693.952 757.986 731.838C757.96 741.289 757.992 750.736 758.109 760.187C758.183 766.179 758.506 772.287 758.163 778.27C757.887 783.071 756.675 786.999 754.223 791.128C749.231 799.533 740.855 804.825 731.566 807.205C724.967 808.003 717.916 807.374 711.25 807.322C699.117 807.229 686.977 807.193 674.844 807.244C623.678 807.456 572.514 807.021 521.348 807.007C465.76 806.991 410.165 807.556 354.578 807.283C340.975 807.216 327.375 807.309 313.773 807.386C307.413 807.422 300.462 808.018 294.157 807.386C285.66 806.535 277.718 801.135 272.494 794.579C269.197 790.44 266.748 785.27 266.262 779.97C265.813 775.076 266.228 769.933 266.296 765.007C266.405 757.183 266.39 749.355 266.404 741.53C266.455 712.958 266.45 684.386 266.426 655.814C266.406 631.434 266.516 607.053 266.443 582.673C266.424 576.147 266.359 569.626 266.234 563.101C266.153 558.884 265.787 554.512 266.334 550.329L266.454 549.5C266.945 545.923 268.154 542.495 270.033 539.406C275.201 530.912 283.498 525.408 293.045 523.109Z"/>
	<path fill="white" transform="scale(0.5 0.5)" d="M342.61 598.75C344.427 598.136 346.756 598.443 348.685 598.443C352.976 598.443 357.267 598.447 361.558 598.451C377.814 598.467 394.07 598.487 410.327 598.465C454.96 598.407 499.594 598.695 544.225 598.635C590.079 598.573 635.942 598.162 681.795 598.571L681.682 731.75C679.269 732.203 676.319 731.757 673.838 731.692C669.603 731.58 665.359 731.624 661.123 731.624C641.049 731.623 620.976 731.668 600.903 731.661C545.467 731.641 490.031 731.585 434.595 731.543C403.988 731.519 373.028 730.6 342.456 731.915L342.61 598.75Z"/>
	<path fill="#FABB4A" transform="scale(0.5 0.5)" d="M509.658 625.681C518.329 625.235 526.807 627.055 534.044 632.039C543.391 638.475 549.687 647.661 551.701 658.887C553.822 670.707 551.274 681.15 544.448 690.98C537.347 701.207 528.162 706.744 516.006 708.951C505.389 709.686 495.998 706.728 487.622 700.162C478.816 693.259 472.859 682.564 471.696 671.402C470.627 661.13 472.747 650.759 479.317 642.604C487.212 632.803 497.156 627.042 509.658 625.681Z"/>
</svg>
