<?xml version="1.0" encoding="utf-8" ?>
<svg xmlns="http://www.w3.org/2000/svg" xmlns:xlink="http://www.w3.org/1999/xlink" width="512" height="512">
	<path transform="scale(0.5 0.5)" d="M470.053 39.6145C477.921 38.5673 484.94 42.8033 491.756 46.1408C496.903 48.6605 502.06 51.2415 507.042 54.0726C549.085 77.9649 586.11 119.255 604.385 164.023C607.037 170.519 610.447 177.353 612.276 184.112C614.396 191.942 617.112 199.584 618.99 207.5C620.815 215.198 620.958 223.125 622.474 230.786C623.25 234.709 623.256 238.711 623.428 242.697C623.756 250.257 623.813 257.82 623.848 265.386C623.935 284.211 623.936 303.036 623.958 321.86C623.969 331.718 623.987 341.575 623.977 351.432C623.972 356.833 624.337 362.613 623.633 367.957L623.52 368.75C623.117 371.864 622.229 374.605 620.549 377.271C616.685 383.404 610.348 386.937 603.377 388.414C598.013 389.224 593.531 388.804 588.554 386.362C583.876 384.067 579.624 378.153 578.001 373.3L577.75 372.514C576.003 367.381 576.444 362.467 576.442 357.109C576.44 350.877 576.438 344.646 576.435 338.415C576.428 319.986 576.422 301.557 576.408 283.128C576.394 264.638 576.725 246.238 574.107 227.878C571.741 211.283 566.326 194.545 559.229 179.382C547.467 154.252 531.625 132.797 510.582 114.662C500.333 105.829 488.558 97.5642 476.637 91.165C470.564 87.9053 463.303 85.5134 457.804 81.4602C454.765 79.2208 452.364 76.0535 450.853 72.5999C447.96 65.9899 447.881 59.9453 450.704 53.3126C452.943 48.0535 457.881 43.7257 463.151 41.6437L463.909 41.3541C465.958 40.5589 467.893 40.0309 470.053 39.6145Z"/>
	<path transform="scale(0.5 0.5)" d="M698.753 256.195C750.697 256.389 802.645 256.187 854.59 256.252C866.431 256.267 878.272 256.26 890.112 256.277C896.773 256.287 905.431 255.302 911.773 257.154C917.052 258.696 921.583 262.143 924.202 267.013L924.587 267.75C926.821 271.917 927.171 275.279 927.379 279.919C928.252 299.454 927.488 319.334 927.48 338.906C927.466 374.179 927.588 409.449 927.519 444.723C927.503 453.004 927.444 461.293 927.604 469.574C927.709 475.002 927.892 480.429 927.966 485.857C928.01 489.044 928.271 492.408 927.301 495.48L927.033 496.25C926.01 499.297 924.369 502.512 922.23 504.939C916.848 511.046 910.14 512.744 902.389 513.056L897.25 512.016C895.16 511.605 893.335 510.526 891.563 509.373C886.356 505.986 881.302 499.75 880.039 493.53L879.89 492.75C878.796 487.508 879.61 481.165 879.65 475.75C879.733 464.481 879.75 453.209 879.773 441.94C879.867 396.016 880.201 349.984 879.497 304.07C836.1 303.888 792.696 303.997 749.298 303.997C737.04 303.996 724.783 303.988 712.525 304.062C705.955 304.102 698.761 304.703 692.25 303.984C689.081 303.633 685.313 301.616 682.845 299.606C677.871 295.555 672.892 288.853 672.461 282.237C672.055 275.995 674.536 269.317 678.667 264.653C684.39 258.193 690.515 256.675 698.753 256.195Z"/>
	<path transform="scale(0.5 0.5)" d="M117.823 417.137C122.093 416.81 127.407 417.662 131.293 419.548L132 419.905C136.249 422.026 139.503 425.577 141.707 429.727L141.981 430.25C143.14 432.411 143.796 434.872 143.938 437.32C144.518 447.274 144.06 457.536 144.1 467.52C144.183 488.318 144.21 509.104 144.133 529.902C143.9 593.043 143.293 656.298 144.053 719.431C150.331 720.226 156.859 719.922 163.179 719.933C173.25 719.951 183.321 719.96 193.391 719.968C227.324 719.995 261.257 720.069 295.189 719.963C304.635 719.933 314.081 719.876 323.527 719.916C327.633 719.933 332.517 719.462 336.486 720.309L337 720.428C338.907 720.838 340.727 721.49 342.465 722.384C348.128 725.296 352.025 731.156 354.025 737L354.828 739.563C356.162 745.341 354.795 751.637 351.724 756.653C347.959 762.803 342.223 765.823 335.428 767.45C323.559 768.024 311.506 767.649 299.613 767.651C278.334 767.655 257.056 767.649 235.778 767.645C210.32 767.64 184.861 767.618 159.403 767.633C145.672 767.642 131.825 768.024 118.106 767.603C116.303 767.547 114.681 767.426 112.978 766.778L112.25 766.479C107.34 764.559 103.922 761.796 100.788 757.613C98.1246 754.057 96.3644 749.463 95.9576 745.03C95.4648 739.66 95.9695 733.798 95.9981 728.386C96.0617 716.348 96.1097 704.31 96.0906 692.271C96.0257 651.393 95.9774 610.515 95.9771 569.636C95.9769 539.02 95.9963 508.404 95.9988 477.788C95.9996 469.003 96.0023 460.218 96.0133 451.433C96.0189 446.906 95.5946 441.924 96.2724 437.446L96.3872 436.75C96.91 433.364 98.0183 430.527 99.9908 427.702C104.356 421.449 110.521 418.485 117.823 417.137Z"/>
	<path transform="scale(0.5 0.5)" d="M87.554 18.752C148.566 17.7786 209.71 18.5383 270.732 18.7066C286.354 18.7497 301.974 18.5899 317.596 18.4851C327.437 18.419 338.202 17.6641 347.902 19.3096C352.823 20.1443 357.254 21.124 361.902 23.0135C378.88 29.915 390.904 43.3455 397.978 60C399.531 63.6567 401.566 68.3067 401.911 72.259C402.089 74.2952 402.799 76.1882 402.944 78.2505C403.387 84.5374 403.09 90.9807 403.045 97.2812C402.966 108.249 402.871 119.218 402.796 130.186C402.64 153.017 402.702 175.821 402.369 198.652C402.167 212.529 402.405 226.422 402.342 240.303C402.311 247.244 402.5 254.335 401.909 261.25C401.517 265.84 400.119 270.469 398.75 274.852C395.108 286.513 387.062 296.2 378.29 304.411C369.493 312.645 355.282 318.095 343.37 319.363C333.112 320.455 321.989 319.728 311.65 319.694C301.558 319.661 291.413 320.032 281.331 319.746L275.327 325.992C264.384 336.697 252.938 346.895 242.075 357.659C235.107 364.564 228.727 372.396 221.276 378.768C219.242 380.508 216.78 382.268 214.204 383.05L213.67 383.204C210.467 384.223 207.09 384.181 203.75 383.992C201.053 383.839 198.938 383.062 196.737 381.502C189.198 376.158 182.531 368.119 175.85 361.645C161.844 348.073 147.035 334.841 134.015 320.323C132.525 318.662 80.2143 320.502 72.5221 319.177C60.663 317.135 49.3689 311.839 40.5831 303.574C26.0494 289.902 19.0783 274.432 18.593 254.516C18.2424 240.132 18.7246 225.651 18.7749 211.257C18.8483 190.253 18.5994 169.244 18.5589 148.239C18.532 134.288 18.5146 120.336 18.5146 106.385C18.5145 94.1193 17.7775 81.6662 20.3681 69.6025C22.7715 58.4113 29.8599 46.7144 37.632 38.5494C48.0182 27.6382 60.5607 21.3178 75.4791 19.2939C79.4268 18.7583 83.5703 18.8374 87.554 18.752Z"/>
	<path fill="#4EAFFE" transform="scale(0.5 0.5)" d="M247.254 64.2376C268.316 63.8986 289.397 64.2503 310.461 64.2787C317.341 64.2879 324.222 64.2822 331.103 64.3231C334.648 64.3442 338.709 64.0781 342.192 64.6766C345.549 65.2531 348.537 66.9279 350.987 69.2636C354.822 72.9213 356.807 77.6411 356.98 82.8985C357.383 95.1989 357.029 107.585 357.035 119.898C357.048 146.817 356.928 173.733 356.876 200.651C356.852 212.742 356.959 224.832 357.071 236.922C357.129 243.134 357.723 249.979 356.955 256.128C356.494 259.814 354.418 263.378 351.867 266.022C349.19 268.797 345.677 271.111 341.827 271.837C336.79 272.787 330.324 271.948 325.126 271.978C307.386 272.077 289.511 271.649 271.794 272.177C267.76 272.298 264.528 272.593 260.943 274.651C254.033 278.618 247.624 286.191 241.919 291.779C230.244 303.215 218.604 314.782 207.393 326.675L189.85 309.443C182.475 302.178 175.068 294.946 167.655 287.72C162.692 282.883 156.986 276.253 150.691 273.173C147.878 271.797 144.805 272.073 141.75 272.068C137.998 272.062 134.246 272.055 130.494 272.052C119.488 272.042 108.454 271.904 97.4527 272.206C91.741 272.363 84.9019 273.215 79.3084 272.31C76.1197 271.795 73.5211 270.413 71.1167 268.297C65.7645 263.586 64.5083 258.452 64.2153 251.667C63.6992 239.718 64.0683 227.637 64.1111 215.669C64.1864 194.576 64.2746 173.487 64.218 152.393C64.1769 137.094 64.0897 121.794 64.0751 106.495C64.0668 97.8199 63.5495 88.2236 64.6739 79.6519C65.1772 75.8152 66.8376 72.7842 69.5017 70C71.8559 67.5398 75.3164 65.2528 78.6844 64.6829C83.8412 63.8103 89.7832 64.3076 95.0304 64.3116C104.984 64.3193 114.937 64.3478 124.891 64.3324C165.673 64.2692 206.477 64.701 247.254 64.2376Z"/>
	<path transform="scale(0.5 0.5)" d="M293.99 144.604C299.402 144.147 304.513 144.555 309.25 147.483C314.992 151.033 319.637 156.758 321.119 163.434C322.493 169.627 320.875 176.277 317.398 181.495C313.405 187.486 308.14 190.54 301.119 191.966C295.874 192.118 291.309 191.577 286.593 189.009C280.36 185.614 276.086 180.327 274.177 173.509C272.581 167.809 273.749 161.676 276.642 156.584C280.554 149.702 286.581 146.577 293.99 144.604Z"/>
	<path transform="scale(0.5 0.5)" d="M125.071 144.108C130.518 143.787 134.918 144.675 139.602 147.526C145.24 150.958 149.186 156.255 150.64 162.743C152.07 169.127 150.532 175.864 146.926 181.25C142.668 187.61 136.37 190.575 129.13 191.982C123.767 192.066 119.573 191.416 114.885 188.502C109.088 184.897 104.93 178.798 103.569 172.146C102.379 166.33 103.636 159.904 106.986 155C111.286 148.707 117.753 145.526 125.071 144.108Z"/>
	<path transform="scale(0.5 0.5)" d="M210.246 144.146C214.921 143.799 219.696 144.877 223.824 147.083C229.573 150.154 234.249 156.18 235.97 162.405C237.694 168.64 236.293 174.612 233.089 180.107C229.134 186.888 223.211 190.213 215.804 192.035C209.891 192.492 204.625 191.504 199.564 188.224C193.783 184.477 189.568 178.382 188.284 171.614C187.173 165.763 188.587 159.072 192.133 154.277C196.635 148.188 202.969 145.346 210.246 144.146Z"/>
	<path transform="scale(0.5 0.5)" d="M657.29 439.721C680.342 438.452 703.931 441.562 726.259 447.099C734.908 449.244 743.481 451.336 751.916 454.26C779.266 463.742 804.363 478.128 827.327 495.677C832.986 500.002 838.008 504.951 843.192 509.814C872.198 537.024 895.027 571.041 908.5 608.5C911.468 616.752 914.789 625.099 916.981 633.585C920.175 645.951 921.569 658.397 923.231 671.027C932.035 671.037 940.81 670.674 949.608 670.563C959.087 670.444 968.009 670.209 976.938 673.935C988.426 678.73 997.788 688.076 1002.28 699.761C1005.67 708.577 1005.81 717.253 1005.88 726.566C1006.29 781.237 1005.83 835.95 1005.88 890.626C1005.89 907.206 1005.91 923.785 1005.91 940.365C1005.9 949.633 1006.69 959.623 1005.18 968.754C1003.74 977.376 998.619 986.642 992.459 992.75C985.909 999.244 977.136 1003.83 968 1005.34C960.04 1006.66 951.143 1005.77 943.071 1005.68C931.162 1005.55 919.252 1005.61 907.343 1005.64C853.646 1005.75 799.947 1005.59 746.25 1005.6C728.127 1005.56 709.999 1005.46 691.876 1005.55C682.37 1005.6 672.003 1006.65 662.621 1005.33C649.297 1003.44 638.124 995.451 630.28 984.735C629.369 983.491 627.913 983.515 626.434 983.162C615.465 980.548 604.586 978.362 593.781 975.022C552.574 962.281 514.504 939.351 483.146 909.79C431.261 860.877 398.292 792.981 396.084 721.346C395.76 710.838 395.61 700.145 396.44 689.658C399.794 647.325 413.661 603.932 435.969 567.763C445.652 552.064 457.47 537.262 470.115 523.844C513.302 478.018 572.421 447.755 635.098 440.762C642.404 439.947 649.938 439.937 657.29 439.721ZM656.914 487.711C612.43 489.328 567.723 505.646 532.339 532.605C521.116 541.155 510.941 550.985 501.331 561.298C462.652 602.8 442.717 662.511 444.935 718.795C445.385 730.223 446.834 740.93 448.923 752.135C449.987 757.841 451.006 763.668 452.843 769.186L456.263 780.451C459.613 791.619 464.908 802.654 470.323 812.953C492.07 854.309 525.626 888.72 566.972 910.708C584.434 919.994 603.329 926.717 622.435 931.605L622.427 889.25C622.449 847.214 622.436 805.177 622.432 763.141C622.431 752.23 622.426 741.32 622.437 730.409C622.444 723.837 621.654 716.342 623.341 710C627.008 696.215 635.432 684.159 647.775 676.75C650.804 674.932 653.943 673.817 657.257 672.659C664.262 670.211 672.057 670.489 679.369 670.491C687.047 670.493 694.724 670.545 702.402 670.612C715.56 670.727 728.72 670.777 741.879 670.759C786.024 670.701 830.289 669.618 874.412 671.277C874.999 667.796 873.542 662.781 872.964 659.25C868.072 629.334 853.875 598.706 836.238 574.151C803.432 528.474 753.094 499.041 697.823 490.246C684.368 488.105 670.53 487.366 656.914 487.711ZM674.282 718.22L670.25 718.511C669.561 721.408 669.957 725.138 669.951 728.137C669.937 734.931 669.926 741.725 669.916 748.519C669.876 776.6 669.879 804.681 669.896 832.762C669.914 862.668 669.737 892.577 669.892 922.483C669.931 930.029 669.979 937.576 669.991 945.123C669.999 950.125 669.712 955.291 670.404 960.245L957.586 960.398L959.858 960.34C960.368 956.794 960.156 953.042 960.219 949.454C960.352 941.934 960.328 934.413 960.327 926.891C960.327 905.448 960.389 884.005 960.388 862.561C960.387 831.167 960.381 799.774 960.373 768.38C960.369 751.782 961.315 734.615 959.967 718.11L674.282 718.22Z"/>
	<path transform="scale(0.5 0.5)" d="M748.138 798.555C751.267 798.335 755.428 798.011 758.364 799.157C760.96 800.169 763.292 800.952 765.502 802.733C769.317 805.805 772.691 809.585 776.111 813.088C780.429 817.51 784.827 821.863 789.173 826.258C798.29 835.479 807.957 844.124 816.491 853.893C819.203 850.214 822.763 847.063 826.02 843.868C829.888 840.074 833.647 836.169 837.445 832.304C843.14 826.508 848.84 820.718 854.513 814.901C857.872 811.457 861.153 807.717 864.814 804.598C867.268 802.508 870.158 800.561 873.247 799.593L874 799.366C879.196 797.639 884.838 798.323 889.831 800.446C895.879 803.018 902.116 809.236 904.325 815.5L904.63 816.417C905.48 818.853 905.767 821.555 905.776 824.134C905.813 834.327 899.503 839.445 892.802 846.06C889.116 849.698 885.493 853.395 881.881 857.107C871.955 867.578 861.359 877.504 851.253 887.822C844.907 894.301 838.906 901.686 832.087 907.617C829.49 909.875 826.734 911.765 823.549 913.106C818.889 915.067 811.199 915.22 806.578 913.082C805.189 912.439 803.839 911.466 802.75 910.397C797.161 904.911 791.984 898.901 786.506 893.288C775.344 881.852 763.929 870.673 752.79 859.211C745.828 852.049 738.028 845.392 731.423 837.931C729.51 835.77 727.894 832.98 727.04 830.223C725.208 824.318 727.043 816.831 729.938 811.607C734.179 803.956 739.996 800.851 748.138 798.555Z"/>
</svg>
