<?xml version="1.0" standalone="no"?><!DOCTYPE svg PUBLIC "-//W3C//DTD SVG 1.1//EN" "http://www.w3.org/Graphics/SVG/1.1/DTD/svg11.dtd"><svg class="icon" width="200px" height="200.00px" viewBox="0 0 1024 1024" version="1.1" xmlns="http://www.w3.org/2000/svg"><path d="M311.114667 371.242667L471.146667 169.098667a52.106667 52.106667 0 0 1 81.706666 0l160.032 202.144 153.152-65.632a52.106667 52.106667 0 0 1 71.541334 58.474666l-89.44 430.933334a112.416 112.416 0 0 1-110.08 89.568H285.941333a112.416 112.416 0 0 1-110.08-89.568l-89.429333-430.933334a52.106667 52.106667 0 0 1 71.541333-58.474666l153.152 65.632zM512 220.608L355.648 418.101333a52.106667 52.106667 0 0 1-61.376 15.552l-140.544-60.234666 84.8 408.586666a48.416 48.416 0 0 0 47.402667 38.581334h452.138666a48.416 48.416 0 0 0 47.402667-38.581334l84.8-408.586666-140.544 60.234666a52.106667 52.106667 0 0 1-61.376-15.552L512 220.608z" fill="#000000" /></svg>
