<?xml version="1.0" encoding="utf-8" ?>
<svg xmlns="http://www.w3.org/2000/svg" xmlns:xlink="http://www.w3.org/1999/xlink" width="512" height="512">
	<path fill="#00184C" transform="scale(0.5 0.5)" d="M505.845 2.23641C519.733 0.663799 534.101 4.316 546.012 11.4549C561.888 20.9707 573.77 37.1661 578.094 55.1772C582.175 72.1715 579.083 90.6719 569.93 105.5C561.355 119.391 548.651 131.641 532.348 135.435L532.466 170.693C543.11 170.832 554.01 172.22 564.537 173.713C611.344 180.353 654.937 197.878 694.736 223.104C710.463 233.073 725.894 244.175 739.631 256.773C741.485 254.043 746.243 249.608 747.11 246.644C747.459 245.452 747.033 242.61 747.03 241.225C747.014 234.029 747.007 226.834 746.998 219.638C746.96 190.444 746.752 161.257 746.64 132.064C746.582 117.047 745.503 101.156 747.084 86.2373C748.467 73.1734 754.893 61.444 765.205 53.2572C771.655 48.1358 779.419 44.1469 787.596 42.8054C795.044 41.5834 803.634 42.4366 811.209 42.4423C827.337 42.4545 843.465 42.4625 859.593 42.4729C877.441 42.4845 895.29 42.4887 913.138 42.4814C921.905 42.4779 931.585 41.6945 940.25 42.7405C952.516 44.2211 963.29 52.2222 970.702 61.7359C976.315 68.9409 979.582 76.8765 981.018 85.839C982.208 93.2628 981.512 101.591 981.515 109.112C981.521 123.904 981.491 138.696 981.489 153.488C981.488 170.584 981.471 187.68 981.473 204.775C981.475 214.897 982.226 225.575 980.791 235.594C978.299 252.98 964.488 269.022 948.171 274.888C944.648 276.154 940.86 277.231 937.114 277.538C931.664 277.986 925.998 277.645 920.517 277.609C911.628 277.55 902.738 277.604 893.848 277.598C863.52 277.578 833.19 277.545 802.863 277.258C796.121 277.195 789.379 277.128 782.637 277.058C781.599 277.047 778.524 276.679 777.813 277.007C777.206 277.286 775.898 278.961 775.366 279.499C773.328 281.562 771.365 283.6 768.987 285.282L768.492 285.619C809.493 332.665 837.5 390.078 848.591 451.5C851.045 465.093 852.78 478.442 853.213 492.272L888.179 491.495C893.117 478.879 901.553 466.582 912.59 458.604C928.36 447.203 946.229 442.835 965.5 446.002C981.408 448.616 998.379 458.844 1007.71 472.051C1011.16 476.929 1014.36 481.859 1016.74 487.364C1023.68 503.42 1023.21 519.86 1016.72 535.979C1010.14 552.308 996.005 566.439 979.819 573.25C963.714 580.026 944.828 580.719 928.543 574.056C915.662 568.786 903.776 559.159 896.299 547.365C893.286 542.611 891.164 537.522 889.012 532.34L853.107 532.047C852.088 554.342 848.219 576.263 842.559 597.83C833.763 631.347 820.89 662.309 802.528 691.77C792.682 707.566 781.284 722.362 769.25 736.539C769.62 737.592 776.381 746.32 777.154 746.631C778.008 746.975 781.303 746.59 782.4 746.581C788.346 746.532 794.292 746.539 800.238 746.532C831.653 746.496 863.068 746.483 894.483 746.482C904.032 746.481 913.58 746.483 923.129 746.489C928.777 746.493 934.61 746.174 940.219 746.869C945.88 747.571 951.831 749.846 956.75 752.701C968.316 759.413 977.255 771.621 980.448 784.595L980.665 785.496C982.142 791.286 981.517 797.857 981.506 803.813C981.49 812.998 981.464 822.183 981.457 831.368C981.432 861.752 981.682 892.148 981.455 922.53C981.325 939.928 978.808 954.855 965.75 967.487C959.29 973.737 950.462 978.951 941.547 980.58C936.615 981.481 931.231 981.143 926.227 981.147C918.332 981.154 910.436 981.133 902.541 981.134C873.308 981.137 844.082 981.11 814.849 981.016C807.53 980.993 800.204 980.926 792.885 981.013C788.478 981.065 783.043 981.816 778.75 980.926C774.002 979.941 769.317 978.012 765.061 975.701C761.591 973.818 758.255 971.766 755 969.535C752.193 967.611 748.167 964.227 744.677 964.102C729.144 963.547 713.372 964.13 697.819 964.162C658.326 964.246 618.756 964.795 579.274 963.98C576.762 975.677 572.897 985.506 565.41 994.964C552.425 1011.37 536.586 1019 516.125 1021.39C512.555 1021.49 508.982 1021.66 505.434 1021.18L500.5 1020.5C483.528 1017.52 467.265 1007.69 457.358 993.444C452.395 986.308 448.749 978.747 446.377 970.37C441.5 953.153 444.367 934.574 453.098 919.075C461.323 904.472 475.961 892.304 492.164 887.824L491.83 854.269C481.992 853.796 472.24 852.414 462.5 851C396.966 841.486 333.923 811.627 285.105 766.87C283.179 769.061 281.277 771.269 279.397 773.5C279.021 773.946 277.614 775.297 277.463 775.799C276.939 777.545 277.459 781.092 277.49 783.02C277.598 789.881 277.71 796.742 277.765 803.603C278.011 834.151 277.592 864.713 277.566 895.26C277.558 905.035 277.582 914.81 277.584 924.586C277.585 930.129 278.191 936.718 276.746 942.082L276.489 943C275.167 947.85 273.22 952.593 270.678 956.934C263.351 969.443 252.23 976.856 238.264 980.366C231.168 982.15 222.319 981.182 214.975 981.14C203.346 981.075 191.713 980.947 180.084 981.015C158.813 981.141 137.549 981.272 116.277 981.309C106.244 981.326 95.2454 982.201 85.3264 981.034C79.4197 980.339 73.2925 978.082 68.184 975.047C56.5653 968.143 47.7397 957.124 44.3611 944C42.1977 935.596 42.9219 925.53 42.8425 916.88C42.7066 902.066 42.8253 887.253 42.8446 872.44C42.8775 847.13 42.2114 821.784 42.5305 796.482C42.7066 782.518 47.5357 769.911 57.6412 760.141C64.2023 753.798 73.3229 749.145 82.2861 747.395C89.5824 745.97 97.2235 746.461 104.637 746.454C115.026 746.443 125.414 746.461 135.803 746.462C172.645 746.466 209.513 746.193 246.352 746.644C247.539 745.819 248.481 744.549 249.439 743.463C250.021 742.802 254.992 737.302 254.979 737.066C254.942 736.388 253.633 734.993 253.204 734.449C250.586 731.127 247.863 727.888 245.25 724.562C234.864 711.344 225.047 697.761 216.408 683.329C189.586 638.523 174.317 584.362 171.099 532.441L135.692 532.188C134.683 535.641 133.242 538.875 131.471 542C121.847 558.979 106.013 571.36 87.1919 576.473C70.4508 581.021 51.8502 578.179 36.9043 569.525C21.2461 560.459 8.49264 544.916 4.0694 527.243C-0.0185847 510.909 2.58248 494.177 11.2854 479.792C20.8815 463.93 37.2325 451.186 55.3946 446.901C71.1866 443.176 90.7927 444.937 104.789 453.574C119.38 462.579 131.254 475.897 135.253 492.811L170.988 492.437C171.363 488.856 171.293 485.251 171.576 481.662C172.139 474.541 173.023 467.38 174.095 460.321C181.228 413.363 198.145 367.438 224.14 327.648C233.55 313.244 244.192 299.75 254.867 286.28C252.968 283.612 250.952 281.228 248.707 278.84C248.509 278.629 247.468 277.36 247.224 277.275C246.108 276.884 243.027 277.275 241.76 277.276C234.96 277.279 228.159 277.306 221.359 277.327C191.216 277.42 161.073 277.464 130.931 277.505C121.574 277.518 112.216 277.526 102.859 277.516C97.4746 277.511 91.8348 277.834 86.4856 277.222C80.6261 276.551 74.5009 274.847 69.3525 271.933C58.1682 265.603 48.1321 254.726 44.7495 242.116C43.0122 235.639 43.0653 228.905 42.9854 222.242C42.8862 213.967 42.8885 205.691 42.8915 197.417C42.8991 176.834 42.9309 156.253 42.9851 135.67C43.0104 126.07 42.9189 116.473 42.8358 106.874C42.7719 99.479 42.5747 91.9578 43.431 84.5999C44.1624 78.3149 46.3499 72.1868 49.579 66.75C56.834 54.5349 69.1048 47.0881 82.4917 43.3536C86.5117 42.2321 90.5339 42.4564 94.6656 42.4753C100.152 42.5004 105.639 42.4973 111.126 42.5051C127.128 42.5278 143.131 42.566 159.134 42.5716C179.913 42.5788 200.686 42.5833 221.466 42.662C226.981 42.6829 232.497 42.7016 238.012 42.7382C241.355 42.7603 245.196 42.5494 248.463 43.2946C256.594 45.1493 264.519 50.9734 271.125 55.7862C272.729 56.9552 275.127 59.2222 276.913 59.9594C277.807 60.328 280.868 60.0077 282.034 60.0195C289.067 60.0909 296.099 60.1363 303.132 60.1243C334.301 60.0711 365.47 60.0423 396.64 59.9966C412.361 59.9735 428.366 59.139 444.049 60.0555C446.716 48.6006 451.202 37.4709 458.715 28.2894C470.442 13.9587 487.32 4.15363 505.845 2.23641ZM499.304 209.746C438.711 212.655 379.754 233.285 331.398 270.181C314.021 283.439 298.537 298.46 283.88 314.652C273.13 326.528 263.923 339.785 255.522 353.399C222.297 407.242 208.15 467.654 211.683 530.75C216.156 610.61 253.346 685.361 313.059 738.323C330.79 754.05 351.171 768.789 372.125 779.925C405.892 797.871 442.997 808.498 480.888 812.636C495.319 814.212 509.331 815.279 523.874 814.661C536.227 814.146 548.632 813.242 560.828 811.153C625.373 800.096 687.92 766.029 732.184 717.686C752.243 695.778 769.712 671.202 782.867 644.519C798.798 612.206 807.998 576.505 811.557 540.75C812.975 526.499 813.753 512.326 813.078 498.006C809.323 418.308 773.888 341.911 714.747 288.142C656.523 235.207 577.965 206.533 499.304 209.746ZM90.2408 82.7491C87.5187 83.4953 85.3263 84.6147 83.9743 87.25C83.1949 88.7692 83.4762 90.9452 83.4768 92.6191C83.4875 126.246 83.4667 159.873 83.4748 193.499C83.4768 202.093 83.5203 210.686 83.5092 219.279C83.5051 222.387 82.8403 227.871 83.9819 230.701C84.8529 232.861 86.5615 235.81 88.9498 236.538C91.1619 237.213 94.4213 236.809 96.7983 236.829C103.468 236.885 110.138 236.915 116.808 236.938C138.764 237.013 160.724 237.117 182.68 236.963C201.719 236.829 220.757 236.702 239.796 236.62C245.065 236.597 250.334 236.577 255.604 236.565C258.31 236.56 261.671 236.237 264.259 237.111C269.866 239.006 280.566 252.075 284.68 256.922C291.919 249.998 299.977 243.954 308 237.968C340.266 213.895 375.77 196.415 414.001 184.055C439.084 176.682 465.312 170.907 491.556 170.346C491.55 162.746 491.544 155.146 491.531 147.545C491.525 143.855 491.893 139.744 491.354 136.129C481.924 132.598 472.727 128.134 465.178 121.322C460.707 117.286 457.103 112.81 453.954 107.692C453.108 106.317 450.605 100.528 449.405 99.985C448.817 99.7185 307.494 99.6949 293.843 99.8308C286.744 99.9015 279.616 99.8803 272.524 100.202C269.819 100.325 267.117 100.514 264.417 100.731C263.741 100.785 261.999 101.155 261.4 101.011C260.864 100.882 259.381 99.4937 258.874 99.0537C255.638 96.2448 252.775 92.9748 249.629 90.059C247.067 87.6839 244.274 85.5748 241.475 83.4924C240.695 82.9123 240.09 82.7522 239.121 82.6906C232.925 82.2965 226.566 82.618 220.356 82.6483C208.806 82.7046 197.256 82.7712 185.706 82.6899C153.988 82.4666 121.934 81.3924 90.2408 82.7491ZM739.127 767.25C719.405 783.794 697.837 799.653 675.29 812.127C648.69 826.844 620.689 837.73 591.237 845.197C572.375 849.978 552.482 853.482 532.982 853.718L532.987 887.652C536.636 889.02 540.398 890.078 543.881 891.856C554.835 897.448 564.678 907.139 570.917 917.688C571.394 918.492 573.907 923.987 574.241 924.192C574.871 924.578 600.776 923.99 604.36 923.985C627.14 923.952 649.917 924.255 672.695 924.236C699.742 924.213 726.799 923.883 753.844 924.056C755.898 924.126 758.686 923.913 760.632 924.51C763.759 925.469 766.491 927.523 769.193 929.303C774.324 932.681 779.924 936.155 784.262 940.533C823.903 940.812 863.547 941.564 903.181 940.909C909.689 940.801 916.195 940.694 922.704 940.753C926.616 940.789 931.123 941.248 934.974 940.576C936.117 940.376 937.148 939.07 937.987 938.249C941.303 935.001 940.637 930.827 940.661 926.547C940.858 892.12 940.683 857.66 940.671 823.23C940.669 815.358 940.704 807.482 940.604 799.611C940.582 797.902 940.95 794.422 940.426 792.989C940.082 792.047 938.933 790.366 938.25 789.618C937.555 788.856 936.763 788.356 935.924 787.783L935.279 787.324C931.866 785.541 900.695 786.565 894.301 786.591C862.234 786.722 830.167 786.813 798.1 787.025C789.287 787.084 780.475 787.075 771.663 787.036C767.224 787.016 762.394 787.375 758.016 786.611C755.67 786.202 745.209 772.968 742.624 770.254C741.648 769.229 740.504 767.631 739.127 767.25ZM126.488 786.256C117.582 786.371 108.675 786.511 99.7679 786.517C96.6527 786.519 91.3764 785.772 88.6355 786.673C87.499 787.047 86.0778 788.156 85.2368 788.985C83.0451 791.146 83.0888 793.367 83.1737 796.288L83.4544 932.929C83.3968 935.003 85.3745 937.422 86.795 938.845C87.6858 939.738 88.5998 940.377 89.87 940.581C92.9506 941.078 96.5231 940.75 99.6435 940.756C106.691 940.771 113.738 940.766 120.785 940.786C145.056 940.858 169.254 941.053 193.532 940.761C203.143 940.749 212.754 940.736 222.365 940.714C224.721 940.709 229.53 941.261 231.568 940.313C232.304 939.971 233.417 938.757 234.051 938.135C234.755 937.444 236.142 935.868 236.457 934.934C237.249 932.588 236.682 926.988 236.693 924.368C236.741 913.365 236.742 902.362 236.763 891.359C236.824 858.642 237.446 825.885 237.088 793.171L236.991 787.002L126.488 786.256ZM793.362 82.5776C791.353 83.459 789.198 84.7422 788.234 86.8321C786.687 90.1892 787.709 96.9813 787.749 100.71C787.828 107.995 787.78 115.286 787.782 122.571C787.79 160.543 788.32 198.586 787.744 236.551L933.811 236.765C936.593 235.672 938.79 234.096 939.985 231.25C941.331 228.043 940.816 103.637 940.423 92C940.373 90.5162 940.197 88.9708 939.629 87.5876C938.874 85.7494 936.838 83.7281 935.006 82.9754C931.726 81.6281 925.985 82.4435 922.39 82.4492C912.238 82.4652 902.087 82.4854 891.936 82.4943C859.092 82.5232 826.196 81.9466 793.362 82.5776ZM508.408 42.6168C499.951 44.4791 492.754 48.5414 487.938 55.9667C484.019 62.0074 482.379 69.8023 484.048 76.8751C485.931 84.8553 490.994 91.3594 498.055 95.48C503.263 98.5199 508.908 99.6426 514.893 99.1678C523.51 97.1612 530.31 93.4336 535.115 85.7173C539.055 79.3891 540.626 71.7621 538.835 64.4678C537.058 57.2274 532.27 49.8631 525.75 46.0698C520.287 42.8917 514.632 42.0482 508.408 42.6168ZM509.803 924.632C501.481 925.974 494.558 929.53 489.521 936.485C485.083 942.611 483.528 949.86 484.743 957.286C485.363 961.076 486.596 964.682 488.609 967.959L488.998 968.604C492.764 974.676 499.411 979.168 506.314 980.796C509.331 981.508 512.067 981.548 515.122 981.36C523.488 979.765 530.058 976.001 534.838 968.878C539.143 962.461 540.912 953.761 539.294 946.157C537.816 939.207 533.352 932.831 527.325 929.064C522.007 925.74 516.053 924.185 509.803 924.632ZM949.76 484.584C941.226 486.378 934.519 489.996 929.677 497.44C928.835 498.733 928.226 500.098 927.598 501.5L927.295 502.157C925.051 507.172 924.835 513.269 926.381 518.5L926.621 519.326C928.669 526.092 933.688 532.31 939.964 535.566C945.195 538.281 950.761 539.21 956.609 538.677C964.222 537.166 971.251 533.269 975.525 526.592C979.522 520.347 980.889 512.429 979.061 505.225C977.184 497.834 972.958 492.022 966.351 488.185C961.092 485.13 955.724 484.323 949.76 484.584ZM69.4171 484.166C61.0475 485.47 53.5629 489.483 48.5229 496.476C44.5176 502.033 42.7309 508.925 43.9862 515.702C45.3138 522.87 50.9177 530.46 56.9091 534.528C61.7463 537.812 67.1811 539.046 72.9432 538.971C81.0319 537.849 87.7065 534.375 92.7722 527.808C96.9515 522.39 99.185 515.119 98.1345 508.325C96.9479 500.652 92.6431 493.746 86.3263 489.261C81.3216 485.708 75.5245 483.981 69.4171 484.166Z"/>
	<path fill="#00A1FC" transform="scale(0.5 0.5)" d="M850.968 105.703C865.342 104.782 895.249 103.573 907.151 112.848C915.154 119.083 916.213 129.842 917.338 139.173C918.408 148.05 918.997 156.85 919.013 165.795C919.036 178.275 918.066 191.591 909.941 201.749C902.701 210.802 891.313 211.735 880.595 212.864C871.443 214.043 861.804 213.683 852.608 213.067C842.91 212.418 831.582 212.178 823.5 206.043C815.829 200.219 812.869 189.105 811.906 179.974C810.451 166.168 811.55 151.054 812.996 137.25C813.405 133.347 813.511 129.094 814.515 125.301C815.467 121.703 817.012 118.061 819.451 115.215C826.505 106.984 840.849 106.311 850.968 105.703Z"/>
	<path fill="#00A1FC" transform="scale(0.5 0.5)" d="M143.37 810.187C149.638 809.616 156.167 809.838 162.469 809.87C174.95 809.934 192.29 808.875 202.446 817.358C211.296 824.749 212.289 837.259 213.218 848.032C214.465 862.492 215.123 879.461 211.302 893.562C210.115 897.942 208.124 902.69 205.125 906.154C197.503 914.956 186.66 915.903 175.822 916.799C166.267 917.429 156.956 917.398 147.402 916.877C138.236 916.377 127.343 915.838 119.564 910.404C111.615 904.852 107.907 895.09 106.373 885.869C104.188 872.734 105.911 830.787 113.81 820.455C119.849 812.555 134.164 811.217 143.37 810.187Z"/>
	<path fill="#00A1FC" transform="scale(0.5 0.5)" d="M848.304 810.208C855.138 809.838 862.035 809.935 868.879 809.956C880.4 809.991 896.505 809.284 906.176 816.399C913.9 822.081 915.89 830.895 917.268 839.851C919.906 857.009 922.093 890.639 911.029 905C904.209 913.853 892.754 915.481 882.379 916.656C872.194 917.801 862.143 917.549 851.93 916.974C842.758 916.458 831.887 916.306 824.2 910.596C816.533 904.901 813.373 893.179 812.225 884.172C811.306 876.964 811.466 869.655 811.523 862.4C811.6 852.539 811.787 842.164 813.74 832.478C814.611 828.161 815.763 824.071 818.618 820.587C825.43 812.272 838.362 811.192 848.304 810.208Z"/>
	<path fill="#00A1FC" transform="scale(0.5 0.5)" d="M155.409 105.257C162.057 104.992 168.821 105.306 175.451 105.835C184.547 106.561 196.208 107.47 203.155 113.944C212.257 122.427 212.767 144.19 212.97 156.076C213.227 171.144 213.959 192.227 202.492 203.873C192.872 213.643 175.444 213.459 162.71 213.456C149.591 213.444 131.142 214.217 119.786 206.708C112.187 201.684 108.819 193.704 107.149 185.069C105.729 177.726 105.823 170.243 105.925 162.794C106.061 152.826 106.53 142.818 108.094 132.962C108.979 127.387 109.647 121.702 113.038 116.98C117.868 110.255 126.362 108.386 134 106.916C140.957 105.578 148.332 105.596 155.409 105.257Z"/>
	<path fill="#00184C" transform="scale(0.5 0.5)" d="M500.198 248.285L501.971 248.191C536.862 246.686 573.967 252.426 606.506 265.315C638.69 278.064 667.826 297.272 693.171 320.729C742.54 366.421 771.896 432.14 774.387 499.206C776.987 569.25 753.063 638.1 705.162 689.647C672.309 725.001 629.446 752.892 582.892 766.25C563.181 771.906 542.376 774.803 521.904 775.556C452.469 778.309 388.104 753.392 336.24 707.586C285.413 662.696 254.429 596.767 250.293 529.364C246.699 470.775 261.546 412.267 294.762 363.623C301.696 353.469 309.606 344.036 317.763 334.852C347.534 301.339 389.052 274.531 431.715 260.75C453.787 253.62 477.066 249.62 500.198 248.285ZM507.094 287.743C495.445 288.263 483.638 289.09 472.158 291.246C424.214 300.251 379.867 326.101 347.066 362.062C305.765 407.343 287.587 466.539 290.548 527.21C293.355 584.736 322.299 640.837 364.745 679.12C406.432 716.718 460.744 736.731 516.875 735.582C575.181 734.769 630.295 709.556 670.806 667.915C697.191 640.793 716.855 607.094 726.627 570.481C732.309 549.189 734.622 526.694 734.27 504.695C733.385 449.394 709.526 392.428 669.581 353.882C655.334 340.135 639.421 327.464 622.281 317.5C588.833 298.056 548.607 287.047 509.897 287.664L507.094 287.743Z"/>
	<path fill="#00A1FC" transform="scale(0.5 0.5)" d="M509.25 385.665C515.851 384.876 522.277 385.966 528.048 389.251C535.992 393.775 541.983 402.591 544.074 411.412C545.535 417.574 544.182 425.984 544.102 432.403C543.98 442.229 544.09 452.07 544.099 461.897C544.13 495.181 544.034 528.466 544.053 561.75C544.06 572.711 544.07 583.672 544.061 594.633C544.055 600.418 544.391 606.48 543.88 612.238C543.504 616.465 541.434 620.879 539.217 624.475C533.955 633.009 525.956 637.334 516.483 639.551C508.56 640.333 501.543 639.046 494.883 634.535C488.153 629.976 482.047 621.755 480.676 613.654C479.849 608.767 480.019 603.718 480.005 598.779C479.985 592.151 479.986 585.522 479.986 578.894C479.989 556.338 479.987 533.782 479.993 511.225C479.999 489.635 480.017 468.045 480.018 446.455C480.019 435.417 479.106 423.608 480.447 412.702C481.128 407.167 483.289 402.807 486.61 398.426C492.491 390.67 499.633 386.998 509.25 385.665Z"/>
</svg>
