<?xml version="1.0" standalone="no"?><!DOCTYPE svg PUBLIC "-//W3C//DTD SVG 1.1//EN" "http://www.w3.org/Graphics/SVG/1.1/DTD/svg11.dtd"><svg class="icon" width="200px" height="200.00px" viewBox="0 0 1024 1024" version="1.1" xmlns="http://www.w3.org/2000/svg"><path d="M495.274667 170.453333a21.333333 21.333333 0 0 1 33.450666 0L704.533333 392.533333a21.333333 21.333333 0 0 0 25.130667 6.368l171.392-73.450666a21.333333 21.333333 0 0 1 29.301333 23.946666l-94.912 457.28A85.333333 85.333333 0 0 1 751.893333 874.666667H272.106667a85.333333 85.333333 0 0 1-83.552-67.989334l-94.912-457.28a21.333333 21.333333 0 0 1 29.290666-23.946666l171.402667 73.450666a21.333333 21.333333 0 0 0 25.130667-6.368l175.808-222.08z" fill="#000000" /></svg>
