<?xml version="1.0" encoding="utf-8" ?>
<svg xmlns="http://www.w3.org/2000/svg" xmlns:xlink="http://www.w3.org/1999/xlink" width="512" height="512">
	<path fill="#B2B3B3" transform="scale(0.5 0.5)" d="M756.016 107.992C755.158 105.532 754.782 102.99 754.603 100.398C753.811 88.8876 754.476 76.8812 754.442 65.3186C754.421 57.8462 754.343 50.3739 754.31 42.9015C754.292 38.8973 753.533 32.5092 755.273 28.859C756.93 25.3839 760.681 23.1001 764.25 21.9941C767.192 21.0825 769.056 21.5312 771.715 22.994C774.674 24.6211 778.322 28.0613 779.256 31.4037C779.986 34.0136 779.799 37.1657 779.817 39.8661C779.85 44.9623 779.806 50.0586 779.845 55.1548C779.915 64.3159 780.04 73.4767 780.055 82.6382C780.063 87.6617 780.319 92.8994 779.742 97.8809C779.34 101.349 778.312 104.298 776.447 107.25L774.974 109.377C774.526 110.005 774.671 109.719 774.477 110.459C772.555 109.626 769.37 110.543 767.155 110.432C763.139 110.23 759.726 109.524 756.016 107.992Z"/>
	<path fill="#B2B3B3" transform="scale(0.5 0.5)" d="M250.112 111.082C248.074 107.565 246.159 104.691 245.429 100.578C244.686 96.393 244.9 91.9135 244.888 87.6739C244.868 80.8755 244.861 74.0771 244.858 67.2787C244.856 60.5133 244.848 53.7475 244.872 46.9822C244.887 42.8129 244.686 38.4233 245.262 34.2911L245.38 33.5C245.657 31.5404 245.907 29.5926 246.779 27.7877C248.01 25.2416 250.397 23.3421 253.067 22.4789C256.237 21.4541 260.391 21.7908 263.25 23.5727C266.119 25.3611 269.412 29.0585 270.192 32.4264C270.701 34.6242 270.482 37.1644 270.49 39.408C270.505 43.9786 270.465 48.5492 270.497 53.1197C270.608 69.3259 271.94 86.2538 270.4 102.375C270.116 105.343 269.669 107.183 268.138 109.75C262.015 111.078 256.339 111.136 250.112 111.082Z"/>
	<path fill="#FEC906" transform="scale(0.5 0.5)" d="M502.587 104.565C500.269 101.313 498.395 97.8606 497.698 93.875C496.194 85.2817 497.008 75.6387 496.967 66.8685C496.919 56.5815 496.107 45.4448 497.366 35.25L497.457 34.4617C497.944 30.5173 499.689 27.6317 502.882 25.25C505.97 22.9461 510.123 21.0319 514.054 21.5771C517.905 22.1112 522.152 25.4651 524.377 28.527C525.723 30.3793 526.913 32.6737 527.36 34.934C528.145 38.9047 527.955 43.0664 527.965 47.0947C527.98 52.5814 527.986 58.0681 527.988 63.5547C527.991 73.2346 528.768 83.6545 527.66 93.25L527.585 93.943C527.099 98.01 524.94 101.828 522.523 105.061C516.445 104.989 508.289 107.046 502.587 104.565Z"/>
	<path fill="#B2B3B3" transform="scale(0.5 0.5)" d="M502.587 104.565C508.289 107.046 516.445 104.989 522.523 105.061L522.959 105.57C525.164 108.043 528.503 109.776 530.888 112.25C539.667 121.355 541.926 134.063 541.637 146.25L541.103 155.812C522.208 153.903 502.384 154.913 483.463 155.965C483.332 138.844 483.269 123.338 496.25 110.418C497.924 108.752 501.884 106.566 502.587 104.565Z"/>
	<path fill="#DBDAD9" transform="scale(0.5 0.5)" d="M268.138 109.75C280.44 113.072 290.418 125.107 296.632 135.799C306.042 151.992 310.372 170.86 310.52 189.483C310.563 194.764 310.58 200.268 309.534 205.462C301.793 211.338 293.58 216.587 285.875 222.547C269.896 234.907 254.841 250.105 242.522 266.129C237.495 272.667 233.693 279.944 228.839 286.545L226.581 284.25C225.536 282.911 225.454 280.832 225.38 279.203C225.022 271.358 225.409 263.367 225.454 255.504C225.534 241.546 225.523 227.588 225.51 213.631C225.49 192.693 224.018 170.986 226.041 150.159C227.146 138.786 230.496 127.832 239.051 119.844C242.475 116.647 246.495 114.074 250.112 111.082C256.339 111.136 262.015 111.078 268.138 109.75Z"/>
	<path fill="#DBDAD9" transform="scale(0.5 0.5)" d="M756.016 107.992C759.726 109.524 763.139 110.23 767.155 110.432C769.37 110.543 772.555 109.626 774.477 110.459C784.706 115.694 793.544 125.879 797.154 136.844C798.372 140.544 799.073 144.133 799.332 148.025C799.908 156.699 799.544 165.632 799.55 174.339C799.562 189.476 799.599 204.612 799.632 219.748C799.665 235.334 799.784 250.923 799.641 266.508C799.569 274.432 799.805 282.57 799.025 290.459C798.759 293.151 798.144 295.145 796.936 297.542C794.043 293.904 791.74 289.814 789.105 285.993C785.277 280.439 780.994 275.031 776.758 269.783C764.376 254.444 750.528 239.703 735.116 227.37C727.433 221.221 719.231 215.782 711.505 209.717L711.22 207C710.207 176.386 716.153 145.362 737.941 122.526C740.922 119.402 744.296 116.484 747.794 113.959C750.084 112.305 753.915 110.539 755.688 108.46L756.016 107.992Z"/>
	<path fill="#DBDAD9" transform="scale(0.5 0.5)" d="M895.453 368.275L895.935 368.529C899.811 370.521 904.018 371.872 908.05 373.526C914.562 376.198 921.034 379 927.455 381.885C955.957 394.69 984.675 411.157 1002.04 438C1004.93 442.469 1008.12 447.482 1009.8 452.55C1010.91 455.905 1011.37 459.442 1012.25 462.858C1014 469.562 1016.28 476.448 1017.07 483.345C1019.26 502.545 1017.43 522.359 1013.67 541.25C1011.8 550.608 1010.19 559.399 1005.73 567.93C999.283 580.243 987.797 592.807 976.578 600.981C968.728 606.701 960.077 611.259 951.583 615.933C933.39 625.945 915.359 633.793 895.965 641.1L895.739 416.007L895.453 368.275Z"/>
	<path fill="#DBDAD9" transform="scale(0.5 0.5)" d="M128.43 640.689C124.204 638.573 117.506 637.973 112.841 636.764C105.039 634.742 97.3028 632.345 89.75 629.528C64.7995 620.222 44.6271 604.93 28.7003 583.63C23.6314 576.851 19.1249 570.039 15.6282 562.304C6.57824 542.286 0.759929 517.349 3.20767 495.359C3.73383 490.632 5.01264 486.1 6.15383 481.5C8.26691 472.982 10.5702 464.841 13.7209 456.625C27.9052 419.639 61.7657 393.011 97.2226 377.523C103.084 374.963 109.086 372.728 115.159 370.723C119.246 369.373 123.569 368.296 127.482 366.506L127.907 366.306L128.044 416.611L128.43 640.689Z"/>
	<path fill="#DBDAD9" transform="scale(0.5 0.5)" d="M622.809 725.62C623.352 726.477 623.609 727.137 624.486 727.653C627.631 727.176 631.143 727.638 634.319 727.773C645.983 728.27 657.135 729.793 668.5 732.529C712.583 743.143 750.794 770.476 774.071 809.476C788.162 833.087 795.672 859.803 797.841 887.118C799.519 908.259 798.501 930.076 798.496 951.288C798.494 959.317 798.516 967.346 798.474 975.374C798.447 980.534 798.851 986.655 797.369 991.609C795.591 997.552 790.412 1003.09 784.851 1005.73C779.999 1008.03 774.229 1008.78 769.144 1006.8C763.493 1004.61 757.848 998.208 756.323 992.398C755.347 988.677 755.536 984.536 755.527 980.721C755.513 975.121 755.52 969.522 755.526 963.922C755.565 927.853 756.358 892.397 741.288 858.725C724.511 821.234 694.943 791.649 656.307 777.035C631.489 767.648 601.049 762.688 574.702 767.226C555.082 770.606 536.399 775.49 516.289 775.614C501.13 775.707 486.627 773.999 471.783 771.018C464.437 769.543 457.303 767.567 449.871 766.453C444.167 765.598 438.032 765.779 432.281 765.845C407.4 766.128 382.066 770.822 359.34 781.192C310.805 803.34 278.268 849.46 271.162 902.035C269.123 917.122 270.197 933.19 270.243 948.393C270.266 956.151 270.239 963.909 270.197 971.667C270.157 979.103 270.888 987.376 268.047 994.392C265.891 999.72 259.649 1004.96 254.344 1007.06C250.474 1008.59 244.591 1008.2 240.847 1006.38C235.54 1003.79 229.847 997.894 228.085 992.281L227.852 991.5L227.3 989.439C226.288 983.826 226.567 977.809 226.549 972.121C226.52 963.33 226.522 954.539 226.471 945.748C226.361 926.523 225.407 906.753 226.887 887.598C229.222 857.36 238.998 827.629 255.921 802.371C279.249 767.554 316.807 739.346 358.556 731.753C366.53 730.303 374.578 729.348 382.667 728.858C388 728.536 393.744 728.89 398.967 727.807L399.46 727.696C409.172 728.508 417.853 731.662 427.087 734.57C441.109 738.986 455.455 745.005 469.962 747.502C476.642 748.651 483.709 748.859 490.472 749.127C497.652 749.412 504.938 749.569 512.088 748.698L598.29 733.026C599.132 732.862 600.21 732.703 600.954 732.268C601.993 731.661 602.392 730.445 603.613 730.069C605.908 729.364 608.622 729.141 611 728.661C614.986 727.857 618.91 726.767 622.809 725.62Z"/>
	<path fill="#FEE068" transform="scale(0.5 0.5)" d="M622.809 725.62C623.352 726.477 623.609 727.137 624.486 727.653L624.101 727.847C623.497 728.246 623.311 728.604 622.919 729.181C621.563 731.179 619.316 732.594 616.893 732.938L598.29 733.026C599.132 732.862 600.21 732.703 600.954 732.268C601.993 731.661 602.392 730.445 603.613 730.069C605.908 729.364 608.622 729.141 611 728.661C614.986 727.857 618.91 726.767 622.809 725.62Z"/>
	<path fill="#FEC906" transform="scale(0.5 0.5)" d="M634.766 416.622L895.739 416.007L895.965 641.1C891.813 643.705 885.68 644.743 880.992 646.193C871.36 649.174 861.72 652.181 852.122 655.269C794.899 673.674 737.817 692.511 679.941 708.818C669.145 711.861 658.25 714.374 647.393 717.168C639.12 719.298 630.145 721.091 622.809 725.62C618.91 726.767 614.986 727.857 611 728.661C608.622 729.141 605.908 729.364 603.613 730.069C602.392 730.445 601.993 731.661 600.954 732.268C600.21 732.703 599.132 732.862 598.29 733.026L512.088 748.698L512.17 631.033L605.5 631.418C622.361 631.747 640.311 631.925 656.693 627.488C672.04 623.331 685.445 615.163 696.799 604.107C717.367 584.079 729.299 556.337 729.396 527.659C729.482 502.5 719.869 477.656 702.067 459.714C688.047 445.583 668.553 436.038 649 432.664C627.445 428.945 604.993 430.742 583.218 430.932C559.462 431.139 535.705 431.14 511.947 431.089C513.136 426.459 513.656 421.68 514.009 416.926C523.394 416.561 532.951 417.036 542.354 417.047C562.569 417.071 582.785 417.063 603 417.052C609.442 417.049 615.885 417.045 622.327 417.027C626.43 417.015 630.706 417.248 634.766 416.622Z"/>
	<path fill="#FEE068" transform="scale(0.5 0.5)" d="M128.044 416.611L634.766 416.622C630.706 417.248 626.43 417.015 622.327 417.027C615.885 417.045 609.442 417.049 603 417.052C582.785 417.063 562.569 417.071 542.354 417.047C532.951 417.036 523.394 416.561 514.009 416.926C513.656 421.68 513.136 426.459 511.947 431.089C501.484 430.859 491.068 430.431 480.598 430.493C469.305 430.558 458.032 431.121 446.735 430.974C405.295 430.435 359.147 424.138 326.28 455.497C307.996 472.942 295.446 497.953 294.911 523.468C294.746 531.325 294.976 539.543 296.59 547.25C300.89 567.776 312.802 587.554 327.25 602.504C348.307 624.293 377.014 630.565 406.25 630.95L512.17 631.033L512.088 748.698C504.938 749.569 497.652 749.412 490.472 749.127C483.709 748.859 476.642 748.651 469.962 747.502C455.455 745.005 441.109 738.986 427.087 734.57C417.853 731.662 409.172 728.508 399.46 727.696C396.423 725.821 393.129 723.818 389.748 722.651C383.059 720.341 375.718 719.261 368.795 717.743C357.267 715.214 345.818 712.514 334.462 709.285C296.784 698.572 260.184 684.565 223 672.363C201.463 665.296 179.881 658.376 158.348 651.29C152.332 649.31 146.276 647.455 140.25 645.504C136.332 644.235 131.871 643.015 128.43 640.689L128.044 416.611Z"/>
	<path fill="#DBDAD9" transform="scale(0.5 0.5)" d="M512.17 631.033L406.25 630.95C377.014 630.565 348.307 624.293 327.25 602.504C312.802 587.554 300.89 567.776 296.59 547.25C294.976 539.543 294.746 531.325 294.911 523.468C295.446 497.953 307.996 472.942 326.28 455.497C359.147 424.138 405.295 430.435 446.735 430.974C458.032 431.121 469.305 430.558 480.598 430.493C491.068 430.431 501.484 430.859 511.947 431.089C535.705 431.14 559.462 431.139 583.218 430.932C604.993 430.742 627.445 428.945 649 432.664C668.553 436.038 688.047 445.583 702.067 459.714C719.869 477.656 729.482 502.5 729.396 527.659C729.299 556.337 717.367 584.079 696.799 604.107C685.445 615.163 672.04 623.331 656.693 627.488C640.311 631.925 622.361 631.747 605.5 631.418L512.17 631.033Z"/>
	<path fill="#26435F" transform="scale(0.5 0.5)" d="M402.07 480.202C407.107 479.849 412.483 480.346 417.377 481.574C429.825 484.699 440.533 492.798 447.106 503.825C453.075 513.841 456.365 526.662 453.283 538.168L453.049 539C450.956 546.608 447.345 553.915 442.364 560.058C433.848 570.561 421.34 576.606 408.01 577.978C394.005 578.173 382.565 575.692 371.443 566.714C362.738 559.687 355.193 546.65 354.172 535.49C352.943 522.057 356.048 508.504 364.71 497.959C374.083 486.549 387.741 481.57 402.07 480.202Z"/>
	<path fill="#26435F" transform="scale(0.5 0.5)" d="M619.488 480.208C631.519 479.638 642.789 481.514 652.493 489.087C663.825 497.93 670.355 508.814 672.102 523.068C673.578 535.106 670.569 547.914 663.044 557.527C653.875 569.241 641.275 576.243 626.602 577.974C612.281 578.134 601.051 577.093 589.631 567.567C579.932 559.476 573.631 547.234 572.526 534.663C571.382 521.639 573.223 507.853 581.923 497.542C591.609 486.063 604.917 481.458 619.488 480.208Z"/>
	<path fill="#76BADA" transform="scale(0.5 0.5)" d="M483.463 155.965C502.384 154.913 522.208 153.903 541.103 155.812C562.587 157.245 584.33 159.887 605.293 164.924C631.504 171.221 656.709 180.983 681.119 192.305C689.021 195.97 696.737 199.722 704.054 204.482C706.471 206.054 709.45 207.705 711.505 209.717C719.231 215.782 727.433 221.221 735.116 227.37C750.528 239.703 764.376 254.444 776.758 269.783C780.994 275.031 785.277 280.439 789.105 285.993C791.74 289.814 794.043 293.904 796.936 297.542C803.476 309.263 811.303 320.463 818.387 331.885C819.835 334.221 821.215 336.6 822.598 338.974C822.954 339.585 823.643 341.18 824.123 341.605C825.225 342.579 830.131 343.476 831.777 344.072C838.679 346.572 845.479 349.368 852.399 351.828C862.423 355.39 872.524 358.721 882.534 362.33C886.127 363.625 892.962 365.419 895.453 368.275L895.739 416.007L634.766 416.622L128.044 416.611L127.907 366.306C130.921 364.208 134.528 363.368 138 362.336C141.826 361.199 145.618 359.984 149.403 358.716C163.675 353.936 177.666 348.169 191.696 342.723C194.238 341.736 196.775 340.74 199.309 339.732C199.818 339.53 201.353 339.116 201.725 338.769C203.449 337.17 204.915 332.955 205.85 330.797C208.336 325.062 210.704 319.287 213.431 313.659C217.975 304.282 223.773 295.63 228.839 286.545C233.693 279.944 237.495 272.667 242.522 266.129C254.841 250.105 269.896 234.907 285.875 222.547C293.58 216.587 301.793 211.338 309.534 205.462C320.401 199.293 331.047 193.012 342.33 187.591C374.4 172.183 409.137 163.252 444.324 158.714C452.417 157.67 460.638 157.283 468.787 156.944C473.464 156.75 478.256 156.832 482.877 156.07L483.463 155.965Z"/>
</svg>
