<?xml version="1.0" encoding="utf-8" ?>
<svg xmlns="http://www.w3.org/2000/svg" xmlns:xlink="http://www.w3.org/1999/xlink" width="512" height="512">
	<path fill="#2C36FF" transform="scale(1.00392 1.27363)" d="M347.307 316.261C347.918 316.235 348.438 316.548 349.072 316.559C353.074 316.625 357.084 316.593 361.087 316.59C363.073 316.588 365.606 316.867 367.512 316.375L368.125 315.667L368.465 316.653C368.516 323.607 368.07 331.052 369.34 337.887L370.889 338.273L344.115 338.204L347.428 337.881C347.639 336.96 347.366 335.829 347.305 334.882C347.195 333.152 347.155 331.412 347.132 329.678C347.073 325.212 347.216 320.726 347.307 316.261Z"/>
	<path fill="#FF8625" transform="scale(1.00392 1.27363)" d="M197.937 316.468C199.507 315.935 201.388 316.123 203.035 316.088C208.343 315.974 213.575 316.077 218.875 316.437C219.302 316.847 219.37 316.931 219.536 317.496L219.856 338.304C209.761 337.905 199.615 338.046 189.511 338.018C185.044 338.005 180.13 338.374 175.729 337.799C178.127 337.42 180.921 337.698 183.374 337.715C188.294 337.75 193.213 337.784 198.132 337.812L197.937 316.468Z"/>
	<path fill="#480FFF" transform="scale(1.00392 1.27363)" d="M326.009 295.321L346.624 295.498C346.825 295.802 347.267 296.298 347.372 296.625C347.559 297.204 347.25 299.113 347.231 299.817C347.124 303.814 347.187 307.83 347.197 311.829C347.2 313.116 346.954 315.065 347.307 316.261C347.216 320.726 347.073 325.212 347.132 329.678C347.155 331.412 347.195 333.152 347.305 334.882C347.366 335.829 347.639 336.96 347.428 337.881L344.115 338.204L325.965 338.313L325.875 316.99L322.233 316.761C323.249 316.313 324.867 316.457 325.985 316.427L326.009 295.321Z"/>
	<path fill="#BB05F2" transform="scale(1.00392 1.27363)" d="M283.318 273.935C284.399 273.741 285.602 273.908 286.702 273.93C288.729 273.97 290.756 273.972 292.784 273.979C299.652 274.004 306.52 274.017 313.387 274.092C317.555 274.138 321.829 274.389 325.988 274.142C326.005 278.888 326.019 283.634 326.045 288.38C326.057 290.636 326.328 293.095 326.009 295.321L325.985 316.427C324.867 316.457 323.249 316.313 322.233 316.761L283.503 317.147C282.972 312.724 283.298 308.005 283.326 303.556C283.373 296.104 283.395 288.652 283.451 281.2C283.463 279.637 283.509 278.077 283.588 276.516C283.61 276.063 283.805 275.033 283.698 274.625C283.631 274.371 283.445 274.165 283.318 273.935Z"/>
	<defs>
		<linearGradient id="gradient_0" gradientUnits="userSpaceOnUse" x1="261.375" y1="146.375" x2="204.246" y2="187.101">
			<stop offset="0" stop-color="#00C3F9"/>
			<stop offset="1" stop-color="#00DFFE"/>
		</linearGradient>
	</defs>
	<path fill="url(#gradient_0)" transform="scale(1.00392 1.27363)" d="M220.437 124.655L240.578 124.631L240.761 145.824L262.058 145.788L262.073 167.226L262.018 210.026C257.108 210.019 252.199 210.024 247.289 210.04C245.275 210.046 242.788 209.742 240.859 210.212C238.276 210.474 235.369 210.099 232.751 210.088C230.099 210.077 227.443 210.121 224.791 210.178C223.123 210.215 221.379 210.397 219.75 209.968C219.317 209.459 219.272 208.664 219.235 208.013C219.072 205.133 219.288 202.152 219.295 199.263C219.311 193.087 219.289 186.912 219.312 180.736C219.328 176.375 219.464 171.987 219.205 167.633L218.709 167.23L219.537 166.875C219.278 166.129 219.177 165.581 219.234 164.788L219.253 164.569C219.412 164.298 219.716 163.913 219.804 163.625C220.112 162.625 219.832 160.341 219.83 159.219C219.817 153.099 219.594 146.982 219.583 140.867C219.574 135.579 219.881 130.292 219.815 125L220.437 124.655Z"/>
	<path fill="#00DEFD" transform="scale(1.00392 1.27363)" d="M133.943 81.803L198.186 81.7122L198.187 103.288L219.143 103.338C219.275 107.867 219.277 112.397 219.301 116.928C219.31 118.72 219.56 120.937 219.259 122.672L219.632 124.375L220.437 124.655L219.815 125C219.881 130.292 219.574 135.579 219.583 140.867C219.594 146.982 219.817 153.099 219.83 159.219C219.832 160.341 220.112 162.625 219.804 163.625C219.716 163.913 219.412 164.298 219.253 164.569L219.234 164.788C219.177 165.581 219.278 166.129 219.537 166.875L218.709 167.23L198.03 167.253L198.028 146.209L155.161 146.287L155.4 124.535C154.321 124.303 152.927 124.504 151.815 124.535C149.338 124.606 146.861 124.685 144.383 124.715C140.949 124.755 137.524 124.574 134.1 124.591C133.896 123.127 134.014 121.484 134.002 119.996C133.978 117.079 133.978 114.162 133.975 111.245C133.966 101.432 133.998 91.6166 133.943 81.803Z"/>
	<path fill="#00C4EB" transform="scale(1.00392 1.27363)" d="M219.259 122.672L219.632 124.375L220.437 124.655L219.815 125C219.881 130.292 219.574 135.579 219.583 140.867C219.594 146.982 219.817 153.099 219.83 159.219C219.832 160.341 220.112 162.625 219.804 163.625C219.716 163.913 219.412 164.298 219.253 164.569L219.259 122.672Z"/>
	<path fill="#FFB010" transform="scale(1.00392 1.27363)" d="M175.729 337.799C173.976 338.03 171.94 337.84 170.157 337.839C166.322 337.836 162.487 337.833 158.652 337.829C143.356 337.814 127.989 337.348 112.712 338.218L112.649 316.613L91.7046 316.815C91.3915 314.25 91.5618 311.513 91.5585 308.926C91.5526 304.323 91.5292 299.72 91.6374 295.118L70.8903 295.185C70.4183 294.444 70.3195 293.171 70.1789 292.288C69.3682 287.197 69.945 281.507 69.9443 276.337C69.9432 268.306 69.9382 260.277 70.0108 252.246L48.7416 252.855C48.7348 248.104 48.5041 243.355 48.4896 238.604C48.4298 219.039 48.5222 199.47 48.5271 179.905C48.5287 173.509 48.5511 167.111 48.5188 160.715C48.4942 155.868 48.2742 150.982 48.7569 146.155L69.9589 146.287L70.1544 125.04C77.0324 124.026 84.4074 124.68 91.3323 124.833L91.4349 103.507L112.63 103.327L112.631 82.2262C114.881 81.7737 117.431 81.9206 119.736 81.8957C124.472 81.8446 129.207 81.9278 133.943 81.803C133.998 91.6166 133.966 101.432 133.975 111.245C133.978 114.162 133.978 117.079 134.002 119.996C134.014 121.484 133.896 123.127 134.1 124.591L134.217 146.307L112.408 146.212L112.718 167.6C108.295 167.543 103.871 167.483 99.448 167.426C96.6923 167.39 93.8995 167.215 91.1547 167.479C91.513 176.322 91.3516 185.199 91.3499 194.049C91.347 208.493 91.327 222.937 91.3851 237.381C91.4006 241.244 91.4301 245.106 91.4689 248.969C91.4782 249.899 91.2508 251.961 91.6498 252.754C96.7376 252.736 101.826 252.72 106.913 252.77C108.284 252.784 111.131 252.494 112.262 253.155C112.453 263.029 112.508 272.899 112.551 282.775C112.562 285.31 112.551 287.848 112.594 290.382C112.623 292.031 112.798 293.739 112.587 295.376C118.271 295.629 123.916 295.728 129.605 295.636C131.742 295.602 133.879 295.553 136.015 295.503C136.951 295.481 138.074 295.337 138.991 295.456C142.326 294.952 146.261 295.322 149.653 295.3C157.821 295.248 165.989 295.205 174.158 295.168L176.668 295.241C176.783 298.072 176.972 300.918 176.994 303.75C177.019 306.892 176.994 310.036 176.981 313.178C176.977 314.155 176.73 315.952 177.193 316.758L197.937 316.468L198.132 337.812C193.213 337.784 188.294 337.75 183.374 337.715C180.921 337.698 178.127 337.42 175.729 337.799Z"/>
	<path fill="#FF8625" transform="scale(1.00392 1.27363)" d="M138.991 295.456C142.326 294.952 146.261 295.322 149.653 295.3C157.821 295.248 165.989 295.205 174.158 295.168L176.668 295.241C176.783 298.072 176.972 300.918 176.994 303.75C177.019 306.892 176.994 310.036 176.981 313.178C176.977 314.155 176.73 315.952 177.193 316.758C174.276 317.089 171.252 316.985 168.32 316.972C164.013 316.952 159.71 316.934 155.403 316.984L155.173 295.616L139.289 295.481L138.991 295.456Z"/>
	<path fill="#2C36FF" transform="scale(1.00392 1.27363)" d="M262.073 167.226L262.372 167.296C264.388 167.73 267.152 167.335 269.27 167.365C273.961 167.43 279.107 168.071 283.734 167.559L283.235 146.11L304.899 146.188L304.634 103.416C307.865 103.266 311.098 103.482 314.334 103.487C321.487 103.499 328.639 103.493 335.792 103.531C339.726 103.552 343.803 103.805 347.713 103.413L347.325 82.0044L411.312 82.0276C411.78 83.5427 411.464 85.9509 411.477 87.6017C411.518 92.7884 411.43 98.008 411.57 103.19L433.072 103.27L432.704 124.435L454.158 124.512L454.27 167.309L475.482 167.628L475.231 252.759L454.388 252.643L454.132 295.479L433.224 295.056L433.224 294.918C433.769 290.154 433.68 285.422 433.676 280.631C433.671 274.638 433.655 268.644 433.608 262.651C433.591 260.47 433.557 258.288 433.581 256.107C433.595 254.912 433.809 253.451 433.216 252.384C432.695 249.721 433.018 246.415 433.013 243.691C433.001 237.794 433.005 231.897 432.975 226C432.951 221.507 432.588 217.026 432.534 212.533C432.356 197.511 432.389 182.447 432.501 167.424L411.148 167.336L410.969 146.273L347.577 146.373L347.437 188.589L326.162 188.786C325.941 190.733 326.059 192.8 326.048 194.761C326.029 198.237 325.993 201.715 326.012 205.19C326.019 206.592 326.395 208.974 325.972 210.259L304.828 209.981L304.76 231.231L283.304 231.275L283.397 252.623C278.292 252.812 273.15 252.691 268.041 252.681C266.384 252.678 263.572 253.024 262.064 252.505L262.049 231.34L241.42 231.347C240.938 229.068 240.966 226.71 240.892 224.39C240.79 221.189 240.678 217.973 240.725 214.77C240.747 213.238 240.957 211.747 240.859 210.212C242.788 209.742 245.275 210.046 247.289 210.04C252.199 210.024 257.108 210.019 262.018 210.026L262.073 167.226Z"/>
	<path fill="#3B27FF" transform="scale(1.00392 1.27363)" d="M346.624 295.498L369.396 295.552L368.366 296.791L368.403 297.056C368.729 299.559 368.325 302.381 368.331 304.93C368.341 308.765 368.739 312.857 368.465 316.653L368.125 315.667L367.512 316.375C365.606 316.867 363.073 316.588 361.087 316.59C357.084 316.593 353.074 316.625 349.072 316.559C348.438 316.548 347.918 316.235 347.307 316.261C346.954 315.065 347.2 313.116 347.197 311.829C347.187 307.83 347.124 303.814 347.231 299.817C347.25 299.113 347.559 297.204 347.372 296.625C347.267 296.298 346.825 295.802 346.624 295.498Z"/>
	<path fill="#E313D6" transform="scale(1.00392 1.27363)" d="M262.064 252.505C263.572 253.024 266.384 252.678 268.041 252.681C273.15 252.691 278.292 252.812 283.397 252.623L283.304 231.275L304.76 231.231L304.787 252.759L326.083 252.786L325.988 274.142C321.829 274.389 317.555 274.138 313.387 274.092C306.52 274.017 299.652 274.004 292.784 273.979C290.756 273.972 288.729 273.97 286.702 273.93C285.602 273.908 284.399 273.741 283.318 273.935C281.095 274.265 278.636 274.062 276.373 274.072C271.563 274.091 266.754 274.095 261.945 274.068L261.995 252.69L262.064 252.505Z"/>
	<path fill="#480FFF" transform="scale(1.00392 1.27363)" d="M433.216 252.384C433.809 253.451 433.595 254.912 433.581 256.107C433.557 258.288 433.591 260.47 433.608 262.651C433.655 268.644 433.671 274.638 433.676 280.631C433.68 285.422 433.769 290.154 433.224 294.918L433.224 295.056C432.723 297.433 432.942 299.495 432.955 301.884C432.973 305.042 432.972 308.201 432.963 311.359C432.959 312.978 433.115 314.86 432.658 316.42C431.595 317.075 429.096 316.729 427.835 316.721C423.967 316.696 420.092 316.772 416.226 316.677C415.351 316.655 412.802 316.305 412.125 316.678C411.986 316.755 411.777 317.224 411.737 317.375C411.218 319.302 411.549 321.949 411.551 323.975C411.555 328.697 411.594 333.418 411.514 338.14L370.889 338.273L369.34 337.887C368.07 331.052 368.516 323.607 368.465 316.653C368.739 312.857 368.341 308.765 368.331 304.93C368.325 302.381 368.729 299.559 368.403 297.056L368.366 296.791L369.396 295.552L390.023 295.434L390.023 274.277C394.346 274.08 398.652 274.109 402.977 274.166C405.9 274.204 408.881 274.404 411.78 273.996L411.365 253.025C412.729 252.518 414.808 252.753 416.274 252.748C419.703 252.738 423.132 252.733 426.561 252.719C428.648 252.709 430.856 252.855 432.907 252.449L433.216 252.384Z"/>
	<path fill="#F003B6" transform="scale(1.00392 1.27363)" d="M241.42 231.347L262.049 231.34L262.064 252.505L261.995 252.69C261.195 252.461 260.125 252.542 259.285 252.526C257.306 252.487 255.325 252.517 253.346 252.535C246.692 252.598 240.03 252.495 233.378 252.644C228.935 252.744 223.903 253.407 219.532 252.835L219.29 231.373L241.42 231.347Z"/>
	<path fill="#FD2464" transform="scale(1.00392 1.27363)" d="M219.532 252.835C223.903 253.407 228.935 252.744 233.378 252.644C240.03 252.495 246.692 252.598 253.346 252.535C255.325 252.517 257.306 252.487 259.285 252.526C260.125 252.542 261.195 252.461 261.995 252.69L261.945 274.068L261.929 295.751C258.952 295.731 242.334 294.609 240.904 295.936L240.696 295.032L240.779 274.019C230.993 274.031 221.207 273.96 211.421 274C208.8 274.011 206.175 273.996 203.555 274.057C201.815 274.097 200.043 274.294 198.313 274.041L198.042 273.999L197.906 252.837L219.532 252.835Z"/>
	<path fill="#FF6B2D" transform="scale(1.00392 1.27363)" d="M174.158 295.168C174.927 295.119 175.561 295.197 176.211 294.75L176.247 274.083L198.042 273.999L198.313 274.041C200.043 274.294 201.815 274.097 203.555 274.057C206.175 273.996 208.8 274.011 211.421 274C221.207 273.96 230.993 274.031 240.779 274.019L240.696 295.032L240.904 295.936L241.018 317.271C236.505 317.099 231.992 316.962 227.477 316.865C225.072 316.813 222.362 316.539 220 316.997L219.536 317.496C219.37 316.931 219.302 316.847 218.875 316.437C213.575 316.077 208.343 315.974 203.035 316.088C201.388 316.123 199.507 315.935 197.937 316.468L177.193 316.758C176.73 315.952 176.977 314.155 176.981 313.178C176.994 310.036 177.019 306.892 176.994 303.75C176.972 300.918 176.783 298.072 176.668 295.241L174.158 295.168Z"/>
	<path fill="#FF4847" transform="scale(1.00392 1.27363)" d="M174.158 295.168C174.927 295.119 175.561 295.197 176.211 294.75L176.247 274.083L198.042 273.999L198.313 274.041C200.043 274.294 201.815 274.097 203.555 274.057C206.175 273.996 208.8 274.011 211.421 274C221.207 273.96 230.993 274.031 240.779 274.019L240.696 295.032L176.668 295.241L174.158 295.168Z"/>
</svg>
